<svg xmlns="http://www.w3.org/2000/svg" xmlns:xlink="http://www.w3.org/1999/xlink" width="2000" zoomAndPan="magnify" viewBox="0 0 1500 1499.999933" height="2000" preserveAspectRatio="xMidYMid meet" version="1.0"><defs><clipPath id="52760a4efc"><path d="M 32 116 L 580 116 L 580 613 L 32 613 Z M 32 116 " clip-rule="nonzero"/></clipPath><clipPath id="105e87db8e"><path d="M 0 296.558594 L 478.378906 55.902344 L 933.398438 960.398438 L 455.019531 1201.054688 Z M 0 296.558594 " clip-rule="nonzero"/></clipPath><clipPath id="5e563dbc86"><path d="M 0 296.558594 L 478.378906 55.902344 L 933.398438 960.398438 L 455.019531 1201.054688 Z M 0 296.558594 " clip-rule="nonzero"/></clipPath><clipPath id="1dbbb0aa9f"><path d="M 558 951 L 801 951 L 801 1128 L 558 1128 Z M 558 951 " clip-rule="nonzero"/></clipPath><clipPath id="24440f7eac"><path d="M 0 296.558594 L 478.378906 55.902344 L 933.398438 960.398438 L 455.019531 1201.054688 Z M 0 296.558594 " clip-rule="nonzero"/></clipPath><clipPath id="4d2b1aaf9e"><path d="M 0 296.558594 L 478.378906 55.902344 L 933.398438 960.398438 L 455.019531 1201.054688 Z M 0 296.558594 " clip-rule="nonzero"/></clipPath><clipPath id="9e6cacaf33"><path d="M 314 466 L 582 466 L 582 694 L 314 694 Z M 314 466 " clip-rule="nonzero"/></clipPath><clipPath id="4da6ab9d7e"><path d="M 0 296.558594 L 478.378906 55.902344 L 933.398438 960.398438 L 455.019531 1201.054688 Z M 0 296.558594 " clip-rule="nonzero"/></clipPath><clipPath id="f11debecf2"><path d="M 0 296.558594 L 478.378906 55.902344 L 933.398438 960.398438 L 455.019531 1201.054688 Z M 0 296.558594 " clip-rule="nonzero"/></clipPath><clipPath id="91e0af9d51"><path d="M 355 547 L 623 547 L 623 775 L 355 775 Z M 355 547 " clip-rule="nonzero"/></clipPath><clipPath id="57845585a8"><path d="M 0 296.558594 L 478.378906 55.902344 L 933.398438 960.398438 L 455.019531 1201.054688 Z M 0 296.558594 " clip-rule="nonzero"/></clipPath><clipPath id="38cd458dc8"><path d="M 0 296.558594 L 478.378906 55.902344 L 933.398438 960.398438 L 455.019531 1201.054688 Z M 0 296.558594 " clip-rule="nonzero"/></clipPath><clipPath id="902768e88d"><path d="M 395 628 L 663 628 L 663 856 L 395 856 Z M 395 628 " clip-rule="nonzero"/></clipPath><clipPath id="b2ce6024ee"><path d="M 0 296.558594 L 478.378906 55.902344 L 933.398438 960.398438 L 455.019531 1201.054688 Z M 0 296.558594 " clip-rule="nonzero"/></clipPath><clipPath id="5c333906df"><path d="M 0 296.558594 L 478.378906 55.902344 L 933.398438 960.398438 L 455.019531 1201.054688 Z M 0 296.558594 " clip-rule="nonzero"/></clipPath><clipPath id="004265de70"><path d="M 436 708 L 704 708 L 704 937 L 436 937 Z M 436 708 " clip-rule="nonzero"/></clipPath><clipPath id="8e659ae013"><path d="M 0 296.558594 L 478.378906 55.902344 L 933.398438 960.398438 L 455.019531 1201.054688 Z M 0 296.558594 " clip-rule="nonzero"/></clipPath><clipPath id="632ed738c9"><path d="M 0 296.558594 L 478.378906 55.902344 L 933.398438 960.398438 L 455.019531 1201.054688 Z M 0 296.558594 " clip-rule="nonzero"/></clipPath><clipPath id="76d0a2df01"><path d="M 477 789 L 745 789 L 745 1017 L 477 1017 Z M 477 789 " clip-rule="nonzero"/></clipPath><clipPath id="a28d222418"><path d="M 0 296.558594 L 478.378906 55.902344 L 933.398438 960.398438 L 455.019531 1201.054688 Z M 0 296.558594 " clip-rule="nonzero"/></clipPath><clipPath id="978363631e"><path d="M 0 296.558594 L 478.378906 55.902344 L 933.398438 960.398438 L 455.019531 1201.054688 Z M 0 296.558594 " clip-rule="nonzero"/></clipPath><clipPath id="cad064a022"><path d="M 517 870 L 785 870 L 785 1098 L 517 1098 Z M 517 870 " clip-rule="nonzero"/></clipPath><clipPath id="ee42c16906"><path d="M 0 296.558594 L 478.378906 55.902344 L 933.398438 960.398438 L 455.019531 1201.054688 Z M 0 296.558594 " clip-rule="nonzero"/></clipPath><clipPath id="80dd7ad518"><path d="M 0 296.558594 L 478.378906 55.902344 L 933.398438 960.398438 L 455.019531 1201.054688 Z M 0 296.558594 " clip-rule="nonzero"/></clipPath></defs><g clip-path="url(#52760a4efc)"><g clip-path="url(#105e87db8e)"><g clip-path="url(#5e563dbc86)"><path fill="#1901ad" d="M 358.746094 116.085938 L 119.601562 236.390625 L 32.933594 361.949219 L 101.265625 497.785156 L 107.011719 497.589844 L 248.6875 492.992188 L 292.71875 580.519531 C 281.320312 594.496094 276.320312 605.101562 279.921875 609.882812 C 283.046875 614.304688 292.742188 613.621094 306.855469 608.621094 C 315.050781 605.847656 324.617188 601.632812 335.378906 596.21875 C 361.207031 583.226562 393.421875 563.273438 426.945312 539.066406 C 471.699219 506.515625 508.132812 473.800781 527.050781 450.648438 C 538.453125 436.675781 543.453125 426.066406 539.851562 421.285156 C 536.726562 416.863281 527.03125 417.546875 512.917969 422.550781 L 487.894531 372.808594 L 576.035156 261.792969 L 579.613281 257.292969 L 511.222656 121.339844 Z M 358.746094 116.085938 " fill-opacity="1" fill-rule="nonzero"/></g></g></g><g clip-path="url(#1dbbb0aa9f)"><g clip-path="url(#24440f7eac)"><g clip-path="url(#4d2b1aaf9e)"><path fill="#1901ad" d="M 679.757812 1037.738281 C 647.070312 1061.523438 613.960938 1082.078125 586.695312 1095.792969 C 575.9375 1101.207031 566.488281 1105.359375 558.355469 1108.253906 C 568.753906 1125.945312 591.21875 1132.773438 609.75 1123.449219 L 778.828125 1038.394531 C 798.195312 1028.648438 805.980469 1005.105469 796.238281 985.734375 L 778.792969 951.058594 C 775.6875 954.71875 772.105469 958.617188 768.164062 962.699219 C 746.371094 985.5 715.132812 1012.152344 679.757812 1037.738281 Z M 679.757812 1037.738281 " fill-opacity="1" fill-rule="nonzero"/></g></g></g><g clip-path="url(#9e6cacaf33)"><g clip-path="url(#4da6ab9d7e)"><g clip-path="url(#f11debecf2)"><path fill="#1901ad" d="M 553.519531 503.261719 L 535.054688 466.550781 C 531.949219 470.210938 528.367188 474.109375 524.425781 478.191406 C 502.632812 500.992188 471.332031 527.527344 435.957031 553.113281 C 403.273438 576.898438 370.21875 597.570312 342.957031 611.285156 C 332.195312 616.699219 322.75 620.851562 314.496094 623.804688 L 333.324219 661.230469 C 321.925781 675.207031 316.921875 685.816406 320.527344 690.59375 C 323.648438 695.015625 333.34375 694.335938 347.460938 689.332031 C 355.652344 686.558594 365.21875 682.34375 375.980469 676.929688 C 401.808594 663.9375 434.023438 643.984375 467.488281 619.660156 C 512.300781 587.226562 548.738281 554.511719 567.59375 531.242188 C 578.996094 517.265625 583.996094 506.65625 580.394531 501.878906 C 577.332031 497.574219 567.632812 498.257812 553.519531 503.261719 Z M 553.519531 503.261719 " fill-opacity="1" fill-rule="nonzero"/></g></g></g><g clip-path="url(#91e0af9d51)"><g clip-path="url(#57845585a8)"><g clip-path="url(#38cd458dc8)"><path fill="#1901ad" d="M 594.121094 583.972656 L 575.65625 547.261719 C 572.550781 550.921875 568.96875 554.824219 565.03125 558.902344 C 543.238281 581.703125 511.933594 608.238281 476.5625 633.824219 C 443.875 657.609375 410.824219 678.28125 383.5625 691.996094 C 372.800781 697.410156 363.351562 701.5625 355.097656 704.515625 L 373.988281 742.0625 C 362.585938 756.039062 357.585938 766.644531 361.1875 771.425781 C 364.3125 775.847656 374.007812 775.164062 388.121094 770.164062 C 396.316406 767.386719 405.882812 763.175781 416.644531 757.761719 C 442.472656 744.769531 474.6875 724.816406 508.152344 700.492188 C 552.964844 668.054688 589.398438 635.34375 608.257812 612.070312 C 619.65625 598.097656 624.660156 587.488281 621.058594 582.710938 C 617.933594 578.289062 608.296875 579.089844 594.121094 583.972656 Z M 594.121094 583.972656 " fill-opacity="1" fill-rule="nonzero"/></g></g></g><g clip-path="url(#902768e88d)"><g clip-path="url(#b2ce6024ee)"><g clip-path="url(#5c333906df)"><path fill="#1901ad" d="M 634.785156 664.804688 L 616.320312 628.09375 C 613.214844 631.753906 609.632812 635.652344 605.691406 639.734375 C 583.898438 662.535156 552.597656 689.066406 517.222656 714.65625 C 484.539062 738.441406 451.488281 759.113281 424.222656 772.828125 C 413.464844 778.242188 404.015625 782.394531 395.761719 785.347656 L 414.648438 822.894531 C 403.25 836.867188 398.25 847.476562 401.851562 852.257812 C 404.976562 856.679688 414.671875 855.996094 428.785156 850.992188 C 436.980469 848.21875 446.546875 844.007812 457.308594 838.59375 C 483.136719 825.597656 515.351562 805.648438 548.8125 781.320312 C 593.628906 748.886719 630.0625 716.175781 648.921875 692.902344 C 660.320312 678.925781 665.324219 668.320312 661.71875 663.539062 C 658.597656 659.117188 648.902344 659.800781 634.785156 664.804688 Z M 634.785156 664.804688 " fill-opacity="1" fill-rule="nonzero"/></g></g></g><g clip-path="url(#004265de70)"><g clip-path="url(#8e659ae013)"><g clip-path="url(#632ed738c9)"><path fill="#1901ad" d="M 675.449219 745.632812 L 656.984375 708.925781 C 653.878906 712.585938 650.296875 716.484375 646.355469 720.5625 C 624.5625 743.363281 593.261719 769.898438 557.886719 795.484375 C 525.203125 819.269531 492.148438 839.941406 464.886719 853.65625 C 454.125 859.070312 444.679688 863.226562 436.425781 866.179688 L 455.3125 903.722656 C 443.914062 917.699219 438.910156 928.308594 442.515625 933.085938 C 445.640625 937.507812 455.335938 936.828125 469.449219 931.824219 C 477.644531 929.050781 487.210938 924.835938 497.972656 919.421875 C 523.800781 906.429688 556.015625 886.476562 589.476562 862.152344 C 634.292969 829.71875 670.726562 797.003906 689.585938 773.734375 C 700.984375 759.757812 705.988281 749.152344 702.382812 744.371094 C 699.261719 739.949219 689.5625 740.632812 675.449219 745.632812 Z M 675.449219 745.632812 " fill-opacity="1" fill-rule="nonzero"/></g></g></g><g clip-path="url(#76d0a2df01)"><g clip-path="url(#a28d222418)"><g clip-path="url(#978363631e)"><path fill="#1901ad" d="M 716.050781 826.34375 L 697.585938 789.636719 C 694.480469 793.296875 690.898438 797.195312 686.960938 801.277344 C 665.167969 824.074219 633.863281 850.609375 598.492188 876.199219 C 565.804688 899.980469 532.753906 920.65625 505.492188 934.371094 C 494.730469 939.78125 485.28125 943.9375 477.027344 946.890625 L 495.917969 984.4375 C 484.515625 998.410156 479.515625 1009.019531 483.117188 1013.796875 C 486.242188 1018.21875 495.9375 1017.539062 510.050781 1012.535156 C 518.246094 1009.761719 527.8125 1005.546875 538.574219 1000.132812 C 564.402344 987.140625 596.617188 967.1875 630.082031 942.863281 C 674.894531 910.429688 711.328125 877.71875 730.1875 854.445312 C 741.585938 840.46875 746.589844 829.863281 742.988281 825.082031 C 739.863281 820.660156 730.167969 821.34375 716.050781 826.34375 Z M 716.050781 826.34375 " fill-opacity="1" fill-rule="nonzero"/></g></g></g><g clip-path="url(#cad064a022)"><g clip-path="url(#ee42c16906)"><g clip-path="url(#80dd7ad518)"><path fill="#1901ad" d="M 756.714844 907.175781 L 738.25 870.46875 C 735.144531 874.125 731.5625 878.027344 727.621094 882.105469 C 705.828125 904.90625 674.527344 931.441406 639.152344 957.027344 C 606.46875 980.8125 573.417969 1001.484375 546.152344 1015.199219 C 535.394531 1020.613281 525.945312 1024.765625 517.691406 1027.722656 L 536.519531 1065.148438 C 525.121094 1079.121094 520.117188 1089.730469 523.78125 1094.628906 C 526.90625 1099.050781 536.539062 1098.25 550.714844 1093.367188 C 558.847656 1090.472656 568.476562 1086.378906 579.238281 1080.964844 C 605.066406 1067.972656 637.339844 1048.140625 670.804688 1023.8125 C 715.617188 991.378906 752.054688 958.667969 770.910156 935.394531 C 782.3125 921.421875 787.3125 910.8125 783.710938 906.03125 C 780.527344 901.492188 770.832031 902.171875 756.714844 907.175781 Z M 756.714844 907.175781 " fill-opacity="1" fill-rule="nonzero"/></g></g></g><path fill="#1901ad" d="M 1369.121094 494.675781 C 1238.25 363.804688 1026.003906 363.804688 895.132812 494.675781 C 764.257812 625.550781 764.257812 837.792969 895.132812 968.667969 C 1026.003906 1099.542969 1238.25 1099.542969 1369.121094 968.667969 C 1499.996094 837.792969 1499.996094 625.550781 1369.121094 494.675781 Z M 1255.886719 886.113281 L 1160.878906 825.046875 C 1142.648438 813.339844 1119.230469 813.488281 1101.003906 825.34375 L 1008.367188 886.113281 C 988.210938 900.191406 963.605469 875.589844 977.6875 855.429688 L 1038.160156 761.464844 C 1049.867188 743.382812 1049.867188 720.113281 1038.160156 702.03125 L 977.6875 608.0625 C 963.605469 587.902344 988.210938 563.300781 1008.367188 577.378906 L 1101.003906 638.148438 C 1119.085938 650.007812 1142.648438 650.152344 1160.878906 638.445312 L 1255.886719 577.378906 C 1276.042969 563.300781 1300.648438 587.902344 1286.566406 608.0625 L 1225.207031 701.585938 C 1213.199219 719.816406 1213.199219 743.53125 1225.207031 761.90625 L 1286.566406 855.433594 C 1300.648438 875.589844 1276.042969 900.191406 1255.886719 886.113281 Z M 1255.886719 886.113281 " fill-opacity="1" fill-rule="nonzero"/></svg>