<svg xmlns="http://www.w3.org/2000/svg" xmlns:xlink="http://www.w3.org/1999/xlink" width="2000" zoomAndPan="magnify" viewBox="0 0 1500 1499.999933" height="2000" preserveAspectRatio="xMidYMid meet" version="1.0"><defs><clipPath id="461f11e082"><path d="M 93.351562 58.820312 L 1455 58.820312 L 1455 1420 L 93.351562 1420 Z M 93.351562 58.820312 " clip-rule="nonzero"/></clipPath></defs><g clip-path="url(#461f11e082)"><path fill="#ffffff" d="M 773.8125 58.417969 C 397.855469 58.417969 93.046875 363.207031 93.046875 739.183594 C 93.046875 1115.140625 397.855469 1419.949219 773.8125 1419.949219 C 1149.789062 1419.949219 1454.574219 1115.140625 1454.574219 739.183594 C 1454.574219 363.207031 1149.789062 58.417969 773.8125 58.417969 Z M 1012.328125 429.710938 C 1006.160156 419.320312 1006.078125 407.738281 1012.066406 401.296875 L 1082.011719 344.503906 L 1082.917969 343.691406 C 1090.460938 336.15625 1100.019531 331.824219 1109.15625 331.824219 C 1113.417969 331.824219 1119.488281 332.8125 1124.210938 337.546875 L 1169.527344 382.875 C 1173.894531 387.230469 1175.863281 393.671875 1175.097656 401.015625 C 1174.226562 409.289062 1170.070312 417.507812 1163.40625 424.179688 L 1105.789062 495.042969 C 1101.855469 498.726562 1096.878906 499.503906 1093.347656 499.503906 C 1088.191406 499.503906 1082.503906 497.820312 1077.375 494.769531 L 1069.382812 490.015625 L 921.394531 641.144531 L 861.894531 589.65625 L 1017.070312 437.695312 Z M 757.238281 932.957031 L 558.871094 1131.324219 C 517.496094 1172.699219 450.425781 1172.699219 409.050781 1131.324219 L 375.773438 1098.046875 C 334.398438 1056.671875 334.398438 989.601562 375.773438 948.226562 L 571.21875 752.78125 C 584.542969 751.671875 597.882812 749.941406 611.054688 747.402344 L 764.558594 924.765625 C 762.261719 927.578125 759.863281 930.335938 757.238281 932.957031 Z M 1154.601562 1089.960938 C 1133.839844 1110.714844 1100.539062 1122.167969 1069.792969 1122.167969 C 1046.722656 1122.167969 1025.085938 1115.714844 1011.253906 1101.886719 L 635.796875 668.050781 C 607.296875 677.632812 574.539062 683.460938 541.78125 683.460938 C 491.472656 683.460938 441.171875 669.734375 406.320312 634.871094 C 348.265625 576.839844 321.378906 503.410156 346.546875 430.738281 L 461.40625 526.835938 L 578.117188 513.511719 L 585.191406 403.050781 L 489.117188 288.214844 C 509.621094 281.105469 530.691406 277.644531 551.667969 277.644531 C 605.027344 277.644531 657.832031 300.019531 699.5 341.6875 C 757.074219 399.273438 757 498.890625 732.648438 571.210938 L 835.960938 660.613281 L 871.886719 691.699219 L 1166.503906 946.648438 C 1198.757812 978.925781 1190.871094 1053.695312 1154.601562 1089.960938 Z M 1154.601562 1089.960938 " fill-opacity="1" fill-rule="nonzero"/></g></svg>