<svg xmlns="http://www.w3.org/2000/svg" xmlns:xlink="http://www.w3.org/1999/xlink" width="2000" zoomAndPan="magnify" viewBox="0 0 1500 1499.999933" height="2000" preserveAspectRatio="xMidYMid meet" version="1.0"><defs><clipPath id="6d73e581e3"><path d="M 74.257812 112.128906 L 1350 112.128906 L 1350 1387.878906 L 74.257812 1387.878906 Z M 74.257812 112.128906 " clip-rule="nonzero"/></clipPath></defs><path fill="#ffffff" d="M 877.496094 486.101562 C 854.871094 508.722656 854.871094 545.402344 877.496094 568.027344 C 900.128906 590.660156 936.808594 590.660156 959.433594 568.027344 C 982.054688 545.402344 982.054688 508.722656 959.433594 486.101562 C 936.808594 463.476562 900.128906 463.476562 877.496094 486.101562 " fill-opacity="1" fill-rule="nonzero"/><g clip-path="url(#6d73e581e3)"><path fill="#ffffff" d="M 1009.34375 768.925781 C 944.652344 833.609375 851.671875 852.753906 770.234375 826.351562 L 472.21875 1124.449219 L 382.160156 1132.671875 C 376.03125 1132.898438 367.96875 1132.492188 361.96875 1126.859375 C 357.53125 1122.695312 355.25 1116.695312 354.992188 1108.5 L 346 1001.796875 L 360.144531 987.65625 L 369.0625 979.410156 C 371.984375 976.710938 375.820312 975.207031 379.796875 975.207031 L 444.511719 975.207031 L 444.742188 905.957031 L 445.519531 902.28125 L 452.503906 894.683594 L 515.664062 894.792969 L 515.664062 835.921875 C 515.664062 833.667969 516.761719 831.527344 517.609375 829.582031 L 526.050781 821.449219 C 527.59375 820.773438 529.429688 820.3125 531.203125 820.164062 L 596.054688 820.132812 L 595.984375 751.773438 L 635.027344 712.753906 C 623.105469 690.296875 615.09375 666.308594 610.964844 641.789062 C 598.765625 569.273438 620.644531 492.140625 676.605469 436.1875 C 732.558594 380.222656 809.691406 358.355469 882.210938 370.554688 C 887.902344 371.511719 893.550781 372.679688 899.171875 374.054688 C 939.546875 383.941406 977.808594 404.652344 1009.34375 436.1875 C 1101.226562 528.070312 1101.226562 677.042969 1009.34375 768.925781 Z M 712.128906 112.128906 C 359.84375 112.128906 74.257812 397.714844 74.257812 750 C 74.257812 1102.28125 359.84375 1387.867188 712.128906 1387.867188 C 1064.410156 1387.867188 1349.996094 1102.28125 1349.996094 750 C 1349.996094 397.714844 1064.410156 112.128906 712.128906 112.128906 " fill-opacity="1" fill-rule="nonzero"/></g></svg>