<svg xmlns="http://www.w3.org/2000/svg" xmlns:xlink="http://www.w3.org/1999/xlink" width="2000" zoomAndPan="magnify" viewBox="0 0 1500 1499.999933" height="2000" preserveAspectRatio="xMidYMid meet" version="1.0"><defs><clipPath id="e699f878fc"><path d="M 738.71875 774.34375 L 761.21875 774.34375 L 761.21875 796.84375 L 738.71875 796.84375 Z M 738.71875 774.34375 " clip-rule="nonzero"/></clipPath><clipPath id="2d0f025372"><path d="M 86.28125 110.621094 L 1436 110.621094 L 1436 1460.621094 L 86.28125 1460.621094 Z M 86.28125 110.621094 " clip-rule="nonzero"/></clipPath></defs><path fill="#ffffff" d="M 748.078125 783.046875 C 745.96875 784.265625 749.1875 790.292969 751.492188 788.960938 L 753.628906 792.664062 C 752.65625 793.226562 751.832031 793.582031 750.707031 792.9375 C 747.574219 791.144531 744.125 785.175781 744.222656 781.617188 C 744.257812 780.378906 744.988281 779.894531 745.941406 779.34375 Z M 748.078125 783.046875 " fill-opacity="1" fill-rule="evenodd"/><path fill="#ffffff" d="M 748.960938 782.949219 C 748.734375 783.078125 748.441406 783 748.308594 782.773438 L 746.292969 779.28125 C 746.164062 779.054688 746.242188 778.761719 746.46875 778.628906 L 747.527344 778.019531 C 747.753906 777.886719 748.046875 777.964844 748.179688 778.191406 L 750.195312 781.683594 C 750.328125 781.910156 750.25 782.203125 750.019531 782.335938 Z M 748.960938 782.949219 " fill-opacity="1" fill-rule="evenodd"/><path fill="#ffffff" d="M 754.46875 792.484375 C 754.242188 792.617188 753.949219 792.539062 753.816406 792.3125 L 751.800781 788.820312 C 751.667969 788.59375 751.746094 788.300781 751.976562 788.167969 L 753.035156 787.554688 C 753.261719 787.425781 753.554688 787.503906 753.6875 787.730469 L 755.703125 791.222656 C 755.835938 791.449219 755.753906 791.742188 755.527344 791.875 Z M 754.46875 792.484375 " fill-opacity="1" fill-rule="evenodd"/><g clip-path="url(#e699f878fc)"><path fill="#ffffff" d="M 749.996094 774.34375 C 753.109375 774.34375 755.929688 775.605469 757.96875 777.644531 C 760.007812 779.683594 761.269531 782.503906 761.269531 785.617188 C 761.269531 788.734375 760.007812 791.550781 757.96875 793.589844 C 755.929688 795.628906 753.109375 796.890625 749.996094 796.890625 L 749.996094 796.894531 L 749.996094 796.890625 C 746.878906 796.890625 744.0625 795.628906 742.023438 793.589844 C 739.984375 791.550781 738.722656 788.734375 738.722656 785.617188 L 738.71875 785.617188 L 738.722656 785.617188 C 738.722656 782.503906 739.984375 779.683594 742.023438 777.644531 C 744.0625 775.605469 746.878906 774.34375 749.996094 774.34375 Z M 749.996094 775.6875 L 749.996094 775.691406 L 749.996094 775.6875 C 747.253906 775.6875 744.773438 776.800781 742.976562 778.597656 C 741.175781 780.394531 740.0625 782.878906 740.0625 785.617188 L 740.066406 785.617188 L 740.0625 785.617188 C 740.066406 788.359375 741.175781 790.839844 742.976562 792.636719 C 744.773438 794.4375 747.257812 795.550781 749.996094 795.550781 L 749.996094 795.546875 L 749.996094 795.550781 C 752.734375 795.546875 755.21875 794.4375 757.015625 792.636719 C 758.8125 790.839844 759.925781 788.355469 759.925781 785.617188 L 759.921875 785.617188 L 759.925781 785.617188 C 759.925781 782.878906 758.8125 780.394531 757.015625 778.597656 C 755.21875 776.800781 752.734375 775.6875 749.996094 775.6875 Z M 749.996094 775.6875 " fill-opacity="1" fill-rule="nonzero"/></g><path fill="#ffffff" d="M 646.332031 631.636719 C 520.210938 704.449219 712.644531 1065.210938 850.65625 985.53125 L 978.617188 1207.160156 C 920.386719 1240.78125 871.097656 1261.972656 803.589844 1223.382812 C 616.152344 1116.234375 409.820312 759.011719 415.703125 545.929688 C 417.742188 471.921875 461.34375 442.925781 518.378906 409.996094 L 646.339844 631.628906 Z M 646.332031 631.636719 " fill-opacity="1" fill-rule="evenodd"/><path fill="#ffffff" d="M 699.230469 625.613281 C 685.605469 633.480469 668.066406 628.785156 660.199219 615.15625 L 539.566406 406.214844 C 531.699219 392.585938 536.394531 375.050781 550.023438 367.179688 L 613.421875 330.574219 C 627.050781 322.707031 644.589844 327.40625 652.460938 341.035156 L 773.089844 549.976562 C 780.957031 563.601562 776.261719 581.140625 762.632812 589.007812 Z M 699.230469 625.613281 " fill-opacity="1" fill-rule="evenodd"/><path fill="#ffffff" d="M 1028.785156 1196.421875 C 1015.160156 1204.289062 997.625 1199.59375 989.753906 1185.964844 L 869.121094 977.023438 C 861.253906 963.394531 865.949219 945.855469 879.578125 937.988281 L 942.980469 901.382812 C 956.605469 893.515625 974.148438 898.214844 982.015625 911.84375 L 1102.644531 1120.78125 C 1110.515625 1134.410156 1105.816406 1151.949219 1092.1875 1159.816406 Z M 1028.785156 1196.421875 " fill-opacity="1" fill-rule="evenodd"/><g clip-path="url(#2d0f025372)"><path fill="#ffffff" d="M 761.070312 110.621094 L 761.082031 110.621094 L 761.082031 110.78125 C 947.488281 110.78125 1116.179688 186.269531 1238.191406 308.292969 C 1360.199219 430.316406 1435.691406 598.992188 1435.695312 785.398438 L 1435.851562 785.398438 L 1435.851562 785.433594 L 1435.695312 785.433594 C 1435.691406 971.839844 1360.207031 1140.53125 1238.183594 1262.539062 C 1116.160156 1384.550781 947.480469 1460.039062 761.074219 1460.046875 L 761.074219 1460.203125 L 761.042969 1460.203125 L 761.042969 1460.046875 C 574.636719 1460.042969 405.945312 1384.554688 283.9375 1262.53125 C 161.925781 1140.507812 86.433594 971.832031 86.429688 785.425781 L 86.273438 785.425781 L 86.273438 785.394531 L 86.429688 785.394531 C 86.433594 598.988281 161.917969 430.292969 283.941406 308.285156 C 405.964844 186.277344 574.644531 110.785156 761.050781 110.78125 L 761.050781 110.625 L 761.070312 110.625 Z M 761.082031 191.109375 L 761.082031 191.265625 L 761.050781 191.265625 L 761.050781 191.109375 C 597.125 191.113281 448.582031 257.691406 340.976562 365.304688 C 233.371094 472.917969 166.773438 621.480469 166.773438 785.402344 L 166.933594 785.402344 L 166.933594 785.433594 L 166.773438 785.433594 C 166.78125 949.359375 233.355469 1097.898438 340.96875 1205.507812 C 448.582031 1313.113281 597.144531 1379.707031 761.066406 1379.707031 L 761.066406 1379.550781 L 761.097656 1379.550781 L 761.097656 1379.707031 C 925.023438 1379.703125 1073.566406 1313.125 1181.171875 1205.511719 C 1288.777344 1097.898438 1355.375 949.335938 1355.375 785.414062 L 1355.214844 785.414062 L 1355.214844 785.382812 L 1355.375 785.382812 C 1355.371094 621.457031 1288.792969 472.917969 1181.179688 365.308594 C 1073.566406 257.703125 925.003906 191.109375 761.082031 191.109375 Z M 761.082031 191.109375 " fill-opacity="1" fill-rule="nonzero"/></g></svg>