<svg xmlns="http://www.w3.org/2000/svg" xmlns:xlink="http://www.w3.org/1999/xlink" width="2000" zoomAndPan="magnify" viewBox="0 0 1500 1499.999933" height="2000" preserveAspectRatio="xMidYMid meet" version="1.0"><defs><clipPath id="aa78a42405"><path d="M 150 150 L 1394 150 L 1394 1362 L 150 1362 Z M 150 150 " clip-rule="nonzero"/></clipPath></defs><g clip-path="url(#aa78a42405)"><path fill="#1901ad" d="M 305.710938 150 L 290.167969 181.082031 L 453.359375 274.335938 C 453.359375 352.042969 422.273438 414.210938 352.335938 453.066406 L 189.144531 359.816406 L 181.375 375.359375 C 220.230469 491.921875 297.9375 569.632812 453.359375 569.632812 C 492.210938 569.632812 608.777344 686.195312 670.945312 748.363281 L 795.28125 624.027344 C 733.113281 561.859375 593.234375 421.984375 593.234375 383.128906 C 593.234375 243.25 554.378906 150 305.710938 150 Z M 1277.078125 188.855469 L 1121.660156 297.648438 L 1106.117188 359.816406 L 655.402344 810.53125 L 593.234375 771.675781 L 562.152344 802.761719 C 562.152344 896.011719 453.359375 942.636719 406.730469 942.636719 L 150.289062 1199.078125 C 150.289062 1276.789062 235.769531 1362.269531 313.480469 1362.269531 L 569.921875 1105.828125 C 569.921875 1059.203125 616.546875 950.410156 709.800781 950.410156 L 740.882812 919.324219 L 702.027344 857.15625 L 1152.742188 406.441406 L 1214.910156 390.898438 L 1323.703125 235.480469 Z M 888.53125 717.28125 L 764.195312 841.613281 C 857.449219 934.867188 981.78125 1059.203125 981.78125 1098.058594 C 981.78125 1237.933594 1020.636719 1331.1875 1269.308594 1331.1875 L 1284.851562 1300.101562 L 1121.660156 1206.851562 C 1121.660156 1129.140625 1152.742188 1066.972656 1222.683594 1028.117188 L 1385.871094 1121.371094 L 1393.644531 1105.828125 C 1354.789062 989.261719 1277.078125 911.554688 1121.660156 911.554688 C 1082.804688 911.554688 981.78125 810.53125 888.53125 717.28125 Z M 888.53125 717.28125 " fill-opacity="1" fill-rule="nonzero"/></g></svg>