<svg xmlns="http://www.w3.org/2000/svg" xmlns:xlink="http://www.w3.org/1999/xlink" width="2000" zoomAndPan="magnify" viewBox="0 0 1500 1499.999933" height="2000" preserveAspectRatio="xMidYMid meet" version="1.0"><defs><clipPath id="0fd73e939f"><path d="M 367.472656 210.28125 L 1132.472656 210.28125 L 1132.472656 1289.53125 L 367.472656 1289.53125 Z M 367.472656 210.28125 " clip-rule="nonzero"/></clipPath></defs><g clip-path="url(#0fd73e939f)"><path fill="#1901ad" d="M 749.515625 210.28125 C 747.902344 210.320312 746.3125 210.527344 744.742188 210.90625 C 743.175781 211.285156 741.664062 211.828125 740.214844 212.535156 C 738.761719 213.238281 737.402344 214.089844 736.132812 215.085938 C 734.867188 216.085938 733.71875 217.207031 732.691406 218.449219 C 732.691406 218.449219 641.964844 327.96875 551.203125 467.886719 C 460.445312 607.800781 367.695312 776.199219 367.695312 907.375 C 367.695312 1118.273438 539.09375 1289.71875 749.996094 1289.71875 C 960.898438 1289.71875 1132.296875 1118.296875 1132.296875 907.417969 C 1132.296875 776.234375 1039.550781 607.804688 948.789062 467.886719 C 858.03125 327.96875 767.304688 218.449219 767.304688 218.449219 C 766.222656 217.144531 765.011719 215.972656 763.667969 214.941406 C 762.324219 213.90625 760.882812 213.035156 759.34375 212.328125 C 757.804688 211.621094 756.203125 211.09375 754.542969 210.75 C 752.886719 210.402344 751.207031 210.246094 749.515625 210.28125 Z M 749.996094 269.179688 C 771.585938 295.878906 835.714844 376.304688 911.015625 492.394531 C 1000.164062 629.828125 1087.320312 798.71875 1087.320312 907.417969 C 1087.320312 1093.996094 936.597656 1244.742188 749.996094 1244.742188 C 563.398438 1244.742188 412.671875 1093.976562 412.671875 907.375 C 412.671875 798.6875 499.832031 629.828125 588.976562 492.394531 C 664.28125 376.304688 728.410156 295.878906 749.996094 269.179688 Z M 502.273438 884.621094 C 501.539062 884.632812 500.804688 884.679688 500.074219 884.765625 C 499.34375 884.847656 498.621094 884.964844 497.898438 885.121094 C 497.179688 885.277344 496.472656 885.464844 495.769531 885.691406 C 495.070312 885.914062 494.382812 886.171875 493.707031 886.464844 C 493.03125 886.753906 492.371094 887.078125 491.726562 887.4375 C 491.085938 887.792969 490.460938 888.179688 489.855469 888.597656 C 489.25 889.015625 488.664062 889.460938 488.101562 889.9375 C 487.542969 890.410156 487.003906 890.914062 486.492188 891.441406 C 485.980469 891.96875 485.492188 892.519531 485.035156 893.097656 C 484.578125 893.671875 484.148438 894.269531 483.75 894.886719 C 483.347656 895.503906 482.980469 896.136719 482.640625 896.792969 C 482.304688 897.445312 482 898.113281 481.726562 898.796875 C 481.457031 899.480469 481.21875 900.175781 481.015625 900.882812 C 480.8125 901.589844 480.644531 902.304688 480.507812 903.03125 C 480.375 903.753906 480.277344 904.480469 480.214844 905.214844 C 480.152344 905.949219 480.128906 906.683594 480.136719 907.417969 C 480.136719 1022.886719 542.589844 1093.273438 603.207031 1130.9375 C 663.828125 1168.605469 724.347656 1177.058594 724.347656 1177.058594 C 725.078125 1177.164062 725.808594 1177.230469 726.546875 1177.265625 C 727.285156 1177.296875 728.019531 1177.292969 728.757812 1177.253906 C 729.492188 1177.214844 730.226562 1177.140625 730.957031 1177.027344 C 731.683594 1176.917969 732.40625 1176.769531 733.121094 1176.585938 C 733.835938 1176.402344 734.539062 1176.1875 735.234375 1175.933594 C 735.925781 1175.683594 736.605469 1175.398438 737.269531 1175.078125 C 737.933594 1174.761719 738.582031 1174.410156 739.214844 1174.027344 C 739.84375 1173.644531 740.453125 1173.234375 741.042969 1172.789062 C 741.636719 1172.347656 742.203125 1171.878906 742.746094 1171.378906 C 743.289062 1170.882812 743.808594 1170.355469 744.300781 1169.808594 C 744.792969 1169.257812 745.257812 1168.6875 745.691406 1168.09375 C 746.128906 1167.496094 746.535156 1166.882812 746.910156 1166.246094 C 747.285156 1165.613281 747.628906 1164.960938 747.941406 1164.292969 C 748.25 1163.625 748.53125 1162.941406 748.773438 1162.246094 C 749.019531 1161.550781 749.226562 1160.84375 749.402344 1160.128906 C 749.578125 1159.410156 749.71875 1158.6875 749.820312 1157.957031 C 749.925781 1157.226562 749.992188 1156.492188 750.023438 1155.757812 C 750.054688 1155.019531 750.050781 1154.28125 750.007812 1153.546875 C 749.96875 1152.808594 749.890625 1152.078125 749.777344 1151.347656 C 749.664062 1150.621094 749.515625 1149.898438 749.332031 1149.183594 C 749.148438 1148.46875 748.929688 1147.765625 748.675781 1147.074219 C 748.425781 1146.378906 748.136719 1145.703125 747.816406 1145.039062 C 747.496094 1144.375 747.144531 1143.726562 746.761719 1143.097656 C 746.378906 1142.464844 745.964844 1141.855469 745.523438 1141.265625 C 745.078125 1140.679688 744.605469 1140.113281 744.105469 1139.570312 C 743.609375 1139.027344 743.082031 1138.507812 742.53125 1138.019531 C 741.984375 1137.527344 741.410156 1137.0625 740.8125 1136.628906 C 740.21875 1136.195312 739.601562 1135.789062 738.96875 1135.414062 C 738.332031 1135.039062 737.679688 1134.699219 737.011719 1134.386719 C 736.339844 1134.078125 735.660156 1133.800781 734.960938 1133.558594 C 734.265625 1133.316406 733.558594 1133.105469 732.84375 1132.933594 C 732.125 1132.761719 731.402344 1132.621094 730.671875 1132.519531 C 730.671875 1132.519531 678.75 1124.925781 626.925781 1092.726562 C 575.105469 1060.527344 525.113281 1007.226562 525.113281 907.417969 C 525.125 906.667969 525.097656 905.917969 525.03125 905.171875 C 524.96875 904.421875 524.867188 903.679688 524.726562 902.941406 C 524.589844 902.207031 524.414062 901.476562 524.203125 900.757812 C 523.988281 900.039062 523.742188 899.332031 523.460938 898.636719 C 523.175781 897.941406 522.859375 897.261719 522.507812 896.597656 C 522.160156 895.933594 521.773438 895.289062 521.359375 894.664062 C 520.945312 894.039062 520.5 893.4375 520.023438 892.855469 C 519.546875 892.277344 519.046875 891.722656 518.515625 891.191406 C 517.984375 890.660156 517.425781 890.160156 516.84375 889.683594 C 516.265625 889.210938 515.660156 888.765625 515.035156 888.351562 C 514.410156 887.9375 513.765625 887.554688 513.101562 887.207031 C 512.4375 886.855469 511.757812 886.542969 511.058594 886.261719 C 510.363281 885.980469 509.65625 885.734375 508.9375 885.523438 C 508.214844 885.3125 507.488281 885.136719 506.75 885 C 506.011719 884.863281 505.269531 884.761719 504.523438 884.699219 C 503.773438 884.636719 503.023438 884.609375 502.273438 884.621094 Z M 502.273438 884.621094 " fill-opacity="1" fill-rule="nonzero"/></g></svg>