<svg xmlns="http://www.w3.org/2000/svg" xmlns:xlink="http://www.w3.org/1999/xlink" width="2000" zoomAndPan="magnify" viewBox="0 0 1500 1499.999933" height="2000" preserveAspectRatio="xMidYMid meet" version="1.0"><defs><clipPath id="e459aaed19"><path d="M 105.5 105.5 L 1394.75 105.5 L 1394.75 1394.75 L 105.5 1394.75 Z M 105.5 105.5 " clip-rule="nonzero"/></clipPath></defs><path fill="#ffffff" d="M 779.867188 382.320312 C 763.617188 366.070312 736.378906 366.070312 720.128906 382.320312 L 433.816406 668.636719 C 408.066406 694.382812 425.691406 740.5 463.683594 740.5 L 498.929688 740.5 L 498.929688 1024.070312 C 498.929688 1041.691406 513.917969 1056.683594 531.542969 1056.683594 L 661.769531 1056.683594 C 671.265625 1056.683594 678.132812 1049.816406 678.132812 1040.320312 L 678.132812 888.347656 C 678.132812 878.964844 684.882812 872.101562 694.382812 872.101562 L 805.613281 872.101562 C 815.109375 872.101562 821.976562 878.964844 821.976562 888.347656 L 821.976562 1040.320312 C 821.976562 1049.816406 828.730469 1056.683594 838.226562 1056.683594 L 968.453125 1056.683594 C 986.078125 1056.683594 1001.066406 1041.691406 1001.066406 1024.070312 L 1001.066406 740.5 L 1036.3125 740.5 C 1072.933594 740.5 1091.929688 695.753906 1066.066406 668.636719 L 779.867188 382.320312 " fill-opacity="1" fill-rule="nonzero"/><g clip-path="url(#e459aaed19)"><path fill="#ffffff" d="M 749.996094 1296.765625 C 448.804688 1296.765625 203.230469 1051.191406 203.230469 749.996094 C 203.230469 448.804688 448.804688 203.230469 749.996094 203.230469 C 1051.191406 203.230469 1296.765625 448.804688 1296.765625 749.996094 C 1296.765625 1051.191406 1051.191406 1296.765625 749.996094 1296.765625 Z M 749.996094 105.5 C 394.449219 105.5 105.5 394.449219 105.5 749.996094 C 105.5 1105.546875 394.449219 1394.492188 749.996094 1394.492188 C 1105.546875 1394.492188 1394.492188 1105.546875 1394.492188 749.996094 C 1394.492188 394.449219 1105.546875 105.5 749.996094 105.5 " fill-opacity="1" fill-rule="nonzero"/></g></svg>