<svg xmlns="http://www.w3.org/2000/svg" xmlns:xlink="http://www.w3.org/1999/xlink" width="2000" zoomAndPan="magnify" viewBox="0 0 1500 1499.999933" height="2000" preserveAspectRatio="xMidYMid meet" version="1.0"><defs><clipPath id="eb55cd3f25"><path d="M 121 178 L 1401.5625 178 L 1401.5625 1382.25 L 121 1382.25 Z M 121 178 " clip-rule="nonzero"/></clipPath><clipPath id="88129a0836"><path d="M 14 9 L 1280.1875 9 L 1280.1875 1203 L 14 1203 Z M 14 9 " clip-rule="nonzero"/></clipPath><clipPath id="169577ce85"><rect x="0" width="1281" y="0" height="1205"/></clipPath></defs><g clip-path="url(#eb55cd3f25)"><g transform="matrix(1, 0, 0, 1, 121, 178)"><g clip-path="url(#169577ce85)"><g clip-path="url(#88129a0836)"><path fill="#1901ad" d="M 1280.171875 1037.066406 L 1273.210938 1183.507812 C 1272.914062 1189.78125 1267.585938 1195.109375 1261.285156 1195.433594 L 1114.84375 1202.394531 C 1108.558594 1202.691406 1099.867188 1199.328125 1095.394531 1194.886719 L 1026.914062 1126.40625 L 893.273438 1126.40625 C 886.984375 1126.40625 881.878906 1121.3125 881.878906 1115 L 881.878906 981.355469 L 865.761719 965.238281 L 732.132812 965.238281 C 725.847656 965.238281 720.742188 960.148438 720.742188 953.832031 L 720.742188 820.207031 L 644.203125 743.667969 L 579.730469 808.125 C 575.285156 812.570312 568.085938 812.570312 563.613281 808.125 L 500.253906 744.765625 C 371.632812 783.917969 226.207031 752.695312 124.503906 651.011719 C -22.34375 504.164062 -22.34375 266.078125 124.503906 119.230469 C 271.339844 -27.601562 509.421875 -27.601562 656.269531 119.230469 C 757.957031 220.917969 789.179688 366.371094 750.011719 494.992188 L 1272.664062 1017.617188 C 1277.105469 1022.089844 1280.46875 1030.765625 1280.171875 1037.066406 Z M 390.394531 218.949219 C 344.503906 173.054688 270.101562 173.070312 224.238281 218.949219 C 178.328125 264.839844 178.328125 339.242188 224.238281 385.121094 C 270.113281 431.011719 344.515625 431.011719 390.394531 385.121094 C 436.300781 339.253906 436.300781 264.839844 390.394531 218.949219 Z M 390.394531 218.949219 " fill-opacity="1" fill-rule="nonzero"/></g></g></g></g></svg>