<svg xmlns="http://www.w3.org/2000/svg" xmlns:xlink="http://www.w3.org/1999/xlink" width="2000" zoomAndPan="magnify" viewBox="0 0 1500 1499.999933" height="2000" preserveAspectRatio="xMidYMid meet" version="1.0"><defs><g/><clipPath id="603a4556a0"><path d="M 464.292969 380.601562 L 1035.707031 380.601562 L 1035.707031 952.015625 L 464.292969 952.015625 Z M 464.292969 380.601562 " clip-rule="nonzero"/></clipPath><clipPath id="78738f40d0"><path d="M 750 380.601562 C 592.207031 380.601562 464.292969 508.515625 464.292969 666.308594 C 464.292969 824.101562 592.207031 952.015625 750 952.015625 C 907.792969 952.015625 1035.707031 824.101562 1035.707031 666.308594 C 1035.707031 508.515625 907.792969 380.601562 750 380.601562 Z M 750 380.601562 " clip-rule="nonzero"/></clipPath><clipPath id="0b33540b5d"><path d="M 0.292969 0.601562 L 571.707031 0.601562 L 571.707031 572.015625 L 0.292969 572.015625 Z M 0.292969 0.601562 " clip-rule="nonzero"/></clipPath><clipPath id="22f87fa25e"><path d="M 286 0.601562 C 128.207031 0.601562 0.292969 128.515625 0.292969 286.308594 C 0.292969 444.101562 128.207031 572.015625 286 572.015625 C 443.792969 572.015625 571.707031 444.101562 571.707031 286.308594 C 571.707031 128.515625 443.792969 0.601562 286 0.601562 Z M 286 0.601562 " clip-rule="nonzero"/></clipPath><clipPath id="fb98faa7bf"><rect x="0" width="572" y="0" height="573"/></clipPath><clipPath id="77fa026c35"><path d="M 558.484375 677 L 756 677 L 756 864.851562 L 558.484375 864.851562 Z M 558.484375 677 " clip-rule="nonzero"/></clipPath><clipPath id="f315a6abc5"><path d="M 574 468.101562 L 941.734375 468.101562 L 941.734375 834 L 574 834 Z M 574 468.101562 " clip-rule="nonzero"/></clipPath><clipPath id="dd97127222"><rect x="0" width="1089" y="0" height="179"/></clipPath><clipPath id="afcb68bc6f"><rect x="0" width="760" y="0" height="68"/></clipPath></defs><g clip-path="url(#603a4556a0)"><g clip-path="url(#78738f40d0)"><g transform="matrix(1, 0, 0, 1, 464, 380)"><g clip-path="url(#fb98faa7bf)"><g clip-path="url(#0b33540b5d)"><g clip-path="url(#22f87fa25e)"><path fill="#1800ad" d="M 0.292969 0.601562 L 571.707031 0.601562 L 571.707031 572.015625 L 0.292969 572.015625 Z M 0.292969 0.601562 " fill-opacity="1" fill-rule="nonzero"/></g></g></g></g></g></g><g clip-path="url(#77fa026c35)"><path fill="#ffffff" d="M 721.609375 682.417969 C 715.667969 675.894531 705.5625 675.433594 699.039062 681.375 C 697.257812 683 695.84375 685.035156 694.960938 687.28125 C 693.53125 690.882812 693.53125 695.019531 695.238281 698.519531 C 696.636719 701.371094 699.078125 704.328125 698.234375 707.722656 C 697.46875 710.785156 694.789062 713.109375 692.355469 714.933594 C 688.671875 717.695312 684.816406 719.265625 680.273438 719.992188 C 676.125 720.652344 671.847656 720.703125 667.714844 720.863281 C 665.125 720.957031 662.828125 721.152344 660.292969 721.628906 C 660.265625 721.628906 660.238281 721.644531 660.210938 721.644531 C 655.367188 722.554688 650.875 724.824219 647.230469 728.152344 L 570.988281 797.683594 C 555.339844 811.960938 554.230469 836.234375 568.519531 851.871094 C 582.785156 867.546875 607.058594 868.671875 622.707031 854.394531 L 698.949219 784.875 C 702.59375 781.546875 705.261719 777.292969 706.621094 772.554688 C 706.632812 772.527344 706.632812 772.5 706.648438 772.472656 C 707.359375 769.992188 707.757812 767.71875 708.097656 765.144531 C 708.640625 761.039062 709.089844 756.785156 710.121094 752.71875 C 711.253906 748.265625 713.171875 744.570312 716.261719 741.148438 C 718.292969 738.902344 720.855469 736.445312 723.972656 735.957031 C 727.421875 735.429688 730.140625 738.136719 732.863281 739.789062 C 736.191406 741.808594 740.296875 742.191406 744.019531 741.109375 C 746.34375 740.421875 748.5 739.207031 750.28125 737.582031 C 756.804688 731.640625 757.265625 721.535156 751.324219 715.011719 Z M 575.320312 825.65625 C 572.890625 822.988281 573.078125 818.84375 575.746094 816.414062 L 646.386719 752.003906 C 649.054688 749.574219 653.199219 749.757812 655.628906 752.425781 C 658.058594 755.09375 657.875 759.242188 655.207031 761.671875 L 584.578125 826.078125 C 581.898438 828.523438 577.765625 828.324219 575.320312 825.65625 Z M 675.109375 783.515625 L 604.480469 847.921875 C 601.8125 850.351562 597.667969 850.167969 595.238281 847.5 C 592.808594 844.832031 592.992188 840.6875 595.660156 838.253906 L 666.289062 773.847656 C 668.957031 771.417969 673.101562 771.601562 675.53125 774.269531 C 677.976562 776.9375 677.789062 781.070312 675.109375 783.515625 Z M 675.109375 783.515625 " fill-opacity="1" fill-rule="nonzero"/></g><path fill="#ffffff" d="M 884.628906 558.371094 C 885.648438 557.25 887.046875 556.546875 888.554688 556.417969 L 905.535156 555.003906 C 906.832031 554.898438 907.992188 554.144531 908.625 553.007812 L 932.898438 509.652344 C 933.785156 508.066406 933.46875 506.085938 932.132812 504.859375 L 920.789062 494.410156 C 919.457031 493.183594 917.449219 493.023438 915.957031 494.042969 L 874.726562 521.777344 C 873.644531 522.503906 872.996094 523.71875 872.996094 525.023438 L 872.96875 542.0625 C 872.96875 543.578125 872.386719 545.03125 871.34375 546.128906 L 798.378906 623.28125 L 813.699219 637.398438 Z M 884.628906 558.371094 " fill-opacity="1" fill-rule="nonzero"/><g clip-path="url(#f315a6abc5)"><path fill="#ffffff" d="M 927.472656 759.519531 L 734.234375 585.496094 C 720.683594 570.929688 710.371094 555.542969 712.917969 533.808594 C 712.445312 517.628906 707.863281 504.066406 698.351562 493.671875 C 680.839844 470.746094 655.445312 463.058594 621.648438 471.589844 C 620.632812 471.855469 620.25 473.125 620.964844 473.902344 L 658.785156 514.972656 C 659.777344 516.058594 660.320312 517.46875 660.265625 518.9375 C 660 526.925781 657.492188 535.578125 653.792969 544.597656 C 653.226562 545.96875 652.15625 547.066406 650.808594 547.648438 C 641.855469 551.53125 633.257812 554.171875 625.28125 554.605469 C 623.816406 554.671875 622.375 554.171875 621.28125 553.195312 L 579.496094 516.148438 C 578.703125 515.449219 577.449219 515.847656 577.195312 516.875 C 569.3125 550.832031 577.488281 576.082031 600.730469 593.15625 C 611.28125 602.480469 624.9375 606.800781 641.117188 606.984375 C 662.800781 604 678.28125 614.972656 693.097656 628.246094 L 867.792969 819.609375 C 884.378906 837.78125 912.878906 838.070312 929.835938 820.242188 L 930.339844 819.6875 C 946.265625 802.359375 945.035156 775.328125 927.472656 759.519531 Z M 806.394531 698.28125 C 806.210938 698.492188 806 698.675781 805.800781 698.875 C 804.164062 700.5 802.234375 701.847656 800.054688 702.574219 C 793.863281 704.632812 787.523438 703.085938 783.230469 698.796875 L 735.976562 651.753906 C 729.851562 645.652344 729.613281 635.878906 735.476562 629.5 C 735.621094 629.34375 735.78125 629.199219 735.9375 629.027344 C 738.964844 625.988281 742.992188 624.3125 747.28125 624.296875 C 751.589844 624.285156 755.617188 625.949219 758.652344 628.972656 L 805.90625 676.015625 C 812.035156 682.117188 812.257812 691.902344 806.394531 698.28125 Z M 915.890625 803.722656 C 907.398438 814.984375 891.113281 815.976562 881.316406 806.097656 C 873.429688 798.132812 872.519531 785.324219 879.242188 776.371094 C 887.972656 764.734375 905.035156 764.035156 914.703125 774.890625 C 921.859375 782.90625 922.347656 795.136719 915.890625 803.722656 Z M 915.890625 803.722656 " fill-opacity="1" fill-rule="nonzero"/></g><path fill="#ffffff" d="M 752.25 635.429688 C 749.515625 632.710938 745.089844 632.722656 742.371094 635.457031 C 739.648438 638.191406 739.664062 642.613281 742.398438 645.335938 L 789.636719 692.378906 C 792.371094 695.097656 796.792969 695.085938 799.515625 692.351562 C 802.234375 689.617188 802.222656 685.191406 799.488281 682.472656 Z M 752.25 635.429688 " fill-opacity="1" fill-rule="nonzero"/><g transform="matrix(1, 0, 0, 1, 205, 971)"><g clip-path="url(#dd97127222)"><g fill="#100f0d" fill-opacity="1"><g transform="translate(1.574838, 140.837799)"><g><path d="M 12.421875 -11.390625 L 12.421875 -92.140625 C 12.421875 -95.296875 13.53125 -97.984375 15.75 -100.203125 C 17.96875 -102.421875 20.65625 -103.53125 23.8125 -103.53125 L 60.5 -103.53125 C 64.738281 -103.53125 68.898438 -103.035156 72.984375 -102.046875 C 77.078125 -101.066406 80.726562 -99.515625 83.9375 -97.390625 C 87.144531 -95.273438 89.734375 -92.515625 91.703125 -89.109375 C 93.671875 -85.710938 94.65625 -81.597656 94.65625 -76.765625 L 94.65625 -76.46875 C 94.65625 -70.644531 93.320312 -65.957031 90.65625 -62.40625 C 88 -58.863281 84.796875 -56.109375 81.046875 -54.140625 C 87.066406 -51.867188 91.800781 -48.785156 95.25 -44.890625 C 98.695312 -40.992188 100.421875 -35.59375 100.421875 -28.6875 L 100.421875 -28.390625 C 100.421875 -23.660156 99.507812 -19.519531 97.6875 -15.96875 C 95.863281 -12.425781 93.25 -9.46875 89.84375 -7.09375 C 86.445312 -4.726562 82.359375 -2.953125 77.578125 -1.765625 C 72.796875 -0.585938 67.492188 0 61.671875 0 L 23.8125 0 C 20.65625 0 17.96875 -1.109375 15.75 -3.328125 C 13.53125 -5.546875 12.421875 -8.234375 12.421875 -11.390625 Z M 34.609375 -42.75 L 34.609375 -19.96875 L 61.671875 -19.96875 C 66.703125 -19.96875 70.644531 -20.878906 73.5 -22.703125 C 76.363281 -24.523438 77.796875 -27.359375 77.796875 -31.203125 L 77.796875 -31.5 C 77.796875 -34.957031 76.460938 -37.695312 73.796875 -39.71875 C 71.140625 -41.738281 66.851562 -42.75 60.9375 -42.75 Z M 34.609375 -61.671875 L 55.609375 -61.671875 C 60.640625 -61.671875 64.632812 -62.535156 67.59375 -64.265625 C 70.550781 -65.992188 72.03125 -68.78125 72.03125 -72.625 L 72.03125 -72.921875 C 72.03125 -76.367188 70.75 -79.003906 68.1875 -80.828125 C 65.625 -82.648438 61.925781 -83.5625 57.09375 -83.5625 L 34.609375 -83.5625 Z M 34.609375 -61.671875 "/></g></g></g><g fill="#100f0d" fill-opacity="1"><g transform="translate(101.234241, 140.837799)"><g><path d="M 6.65625 -14.640625 L 42.75 -96.140625 C 44.03125 -98.992188 45.78125 -101.207031 48 -102.78125 C 50.21875 -104.363281 52.90625 -105.15625 56.0625 -105.15625 L 57.390625 -105.15625 C 60.546875 -105.15625 63.207031 -104.363281 65.375 -102.78125 C 67.539062 -101.207031 69.265625 -98.992188 70.546875 -96.140625 L 106.640625 -14.640625 C 107.429688 -12.472656 107.828125 -10.945312 107.828125 -10.0625 C 107.828125 -7 106.789062 -4.40625 104.71875 -2.28125 C 102.644531 -0.164062 100.082031 0.890625 97.03125 0.890625 C 94.363281 0.890625 92.140625 0.175781 90.359375 -1.25 C 88.585938 -2.6875 87.160156 -4.585938 86.078125 -6.953125 L 79.125 -23.21875 L 33.578125 -23.21875 L 26.328125 -6.21875 C 25.335938 -3.945312 23.929688 -2.191406 22.109375 -0.953125 C 20.285156 0.273438 18.191406 0.890625 15.828125 0.890625 C 12.867188 0.890625 10.378906 -0.144531 8.359375 -2.21875 C 6.335938 -4.289062 5.328125 -6.804688 5.328125 -9.765625 C 5.328125 -10.546875 5.445312 -11.351562 5.6875 -12.1875 C 5.9375 -13.03125 6.257812 -13.847656 6.65625 -14.640625 Z M 42 -43.34375 L 70.703125 -43.34375 L 56.359375 -77.5 Z M 42 -43.34375 "/></g></g></g><g fill="#100f0d" fill-opacity="1"><g transform="translate(207.399757, 140.837799)"><g><path d="M 12.421875 -92.140625 C 12.421875 -95.296875 13.53125 -97.984375 15.75 -100.203125 C 17.96875 -102.421875 20.65625 -103.53125 23.8125 -103.53125 L 59.75 -103.53125 C 65.269531 -103.53125 70.394531 -102.835938 75.125 -101.453125 C 79.863281 -100.078125 83.984375 -97.984375 87.484375 -95.171875 C 90.984375 -92.367188 93.742188 -88.820312 95.765625 -84.53125 C 97.785156 -80.238281 98.796875 -75.1875 98.796875 -69.375 L 98.796875 -69.078125 C 98.796875 -60.785156 96.921875 -54.097656 93.171875 -49.015625 C 89.429688 -43.941406 84.40625 -40.125 78.09375 -37.5625 L 93.921875 -18.34375 C 95.003906 -16.957031 95.890625 -15.597656 96.578125 -14.265625 C 97.273438 -12.941406 97.625 -11.390625 97.625 -9.609375 C 97.625 -6.453125 96.515625 -3.910156 94.296875 -1.984375 C 92.078125 -0.0664062 89.585938 0.890625 86.828125 0.890625 C 84.253906 0.890625 82.082031 0.320312 80.3125 -0.8125 C 78.539062 -1.945312 76.960938 -3.351562 75.578125 -5.03125 L 53.390625 -33.125 L 35.203125 -33.125 L 35.203125 -10.5 C 35.203125 -7.34375 34.09375 -4.65625 31.875 -2.4375 C 29.65625 -0.21875 26.96875 0.890625 23.8125 0.890625 C 20.65625 0.890625 17.96875 -0.21875 15.75 -2.4375 C 13.53125 -4.65625 12.421875 -7.34375 12.421875 -10.5 Z M 35.203125 -82.96875 L 35.203125 -53.25 L 58.28125 -53.25 C 63.894531 -53.25 68.207031 -54.578125 71.21875 -57.234375 C 74.226562 -59.898438 75.734375 -63.453125 75.734375 -67.890625 L 75.734375 -68.1875 C 75.734375 -73.21875 74.15625 -76.9375 71 -79.34375 C 67.84375 -81.757812 63.453125 -82.96875 57.828125 -82.96875 Z M 35.203125 -82.96875 "/></g></g></g><g fill="#100f0d" fill-opacity="1"><g transform="translate(307.206996, 140.837799)"><g><path d="M 12.421875 -93.03125 C 12.421875 -96.1875 13.53125 -98.875 15.75 -101.09375 C 17.96875 -103.3125 20.65625 -104.421875 23.8125 -104.421875 C 26.96875 -104.421875 29.65625 -103.3125 31.875 -101.09375 C 34.09375 -98.875 35.203125 -96.1875 35.203125 -93.03125 L 35.203125 -58.28125 L 77.203125 -99.984375 C 78.585938 -101.367188 80.039062 -102.453125 81.5625 -103.234375 C 83.09375 -104.023438 84.847656 -104.421875 86.828125 -104.421875 C 89.972656 -104.421875 92.507812 -103.382812 94.4375 -101.3125 C 96.363281 -99.238281 97.328125 -96.773438 97.328125 -93.921875 C 97.328125 -92.148438 96.957031 -90.570312 96.21875 -89.1875 C 95.476562 -87.800781 94.46875 -86.519531 93.1875 -85.34375 L 64.046875 -58.125 L 95.84375 -18.1875 C 96.726562 -17.101562 97.46875 -15.921875 98.0625 -14.640625 C 98.65625 -13.359375 98.953125 -11.878906 98.953125 -10.203125 C 98.953125 -7.046875 97.863281 -4.40625 95.6875 -2.28125 C 93.519531 -0.164062 90.757812 0.890625 87.40625 0.890625 C 85.144531 0.890625 83.296875 0.394531 81.859375 -0.59375 C 80.429688 -1.582031 79.078125 -2.910156 77.796875 -4.578125 L 48.21875 -43.34375 L 35.203125 -31.203125 L 35.203125 -10.5 C 35.203125 -7.34375 34.09375 -4.65625 31.875 -2.4375 C 29.65625 -0.21875 26.96875 0.890625 23.8125 0.890625 C 20.65625 0.890625 17.96875 -0.21875 15.75 -2.4375 C 13.53125 -4.65625 12.421875 -7.34375 12.421875 -10.5 Z M 12.421875 -93.03125 "/></g></g></g><g fill="#100f0d" fill-opacity="1"><g transform="translate(405.387734, 140.837799)"><g><path d="M 77.953125 0 L 70.25 -25.140625 L 31.796875 -25.140625 L 24.109375 0 L 0 0 L 37.265625 -106.046875 L 64.640625 -106.046875 L 102.0625 0 Z M 64.9375 -43.921875 L 57.234375 -68.484375 C 56.742188 -70.160156 56.101562 -72.28125 55.3125 -74.84375 C 54.53125 -77.40625 53.742188 -80.015625 52.953125 -82.671875 C 52.160156 -85.335938 51.519531 -87.65625 51.03125 -89.625 C 50.53125 -87.65625 49.863281 -85.21875 49.03125 -82.3125 C 48.195312 -79.40625 47.410156 -76.644531 46.671875 -74.03125 C 45.929688 -71.414062 45.363281 -69.566406 44.96875 -68.484375 L 37.421875 -43.921875 Z M 79.421875 -138.140625 L 79.421875 -136.65625 C 78.046875 -135.28125 76.222656 -133.601562 73.953125 -131.625 C 71.679688 -129.65625 69.238281 -127.585938 66.625 -125.421875 C 64.007812 -123.253906 61.445312 -121.207031 58.9375 -119.28125 C 56.425781 -117.351562 54.234375 -115.75 52.359375 -114.46875 L 37.71875 -114.46875 L 37.71875 -116.390625 C 39.289062 -118.265625 41.132812 -120.457031 43.25 -122.96875 C 45.375 -125.488281 47.445312 -128.101562 49.46875 -130.8125 C 51.488281 -133.53125 53.238281 -135.972656 54.71875 -138.140625 Z M 79.421875 -138.140625 "/></g></g></g><g fill="#100f0d" fill-opacity="1"><g transform="translate(500.3154, 140.837799)"><g><path d="M 61.828125 -105.3125 C 69.617188 -105.3125 76.222656 -104.398438 81.640625 -102.578125 C 87.066406 -100.753906 92 -98.164062 96.4375 -94.8125 C 97.613281 -93.925781 98.644531 -92.691406 99.53125 -91.109375 C 100.425781 -89.535156 100.875 -87.757812 100.875 -85.78125 C 100.875 -82.625 99.785156 -79.984375 97.609375 -77.859375 C 95.441406 -75.742188 92.78125 -74.6875 89.625 -74.6875 C 88.050781 -74.6875 86.722656 -74.929688 85.640625 -75.421875 C 84.554688 -75.921875 83.617188 -76.414062 82.828125 -76.90625 C 79.671875 -79.28125 76.390625 -81.109375 72.984375 -82.390625 C 69.585938 -83.671875 65.816406 -84.3125 61.671875 -84.3125 C 57.335938 -84.3125 53.320312 -83.472656 49.625 -81.796875 C 45.925781 -80.117188 42.742188 -77.800781 40.078125 -74.84375 C 37.421875 -71.882812 35.351562 -68.457031 33.875 -64.5625 C 32.394531 -60.664062 31.65625 -56.5 31.65625 -52.0625 L 31.65625 -51.765625 C 31.65625 -47.328125 32.394531 -43.132812 33.875 -39.1875 C 35.351562 -35.25 37.394531 -31.800781 40 -28.84375 C 42.613281 -25.882812 45.769531 -23.539062 49.46875 -21.8125 C 53.164062 -20.09375 57.234375 -19.234375 61.671875 -19.234375 C 66.503906 -19.234375 70.671875 -19.921875 74.171875 -21.296875 C 77.671875 -22.679688 81 -24.703125 84.15625 -27.359375 C 86.125 -29.035156 88.394531 -29.875 90.96875 -29.875 C 93.820312 -29.875 96.304688 -28.835938 98.421875 -26.765625 C 100.546875 -24.703125 101.609375 -22.238281 101.609375 -19.375 C 101.609375 -17.601562 101.238281 -16.078125 100.5 -14.796875 C 99.757812 -13.515625 98.847656 -12.328125 97.765625 -11.234375 C 93.234375 -6.992188 88.054688 -3.765625 82.234375 -1.546875 C 76.421875 0.667969 69.320312 1.78125 60.9375 1.78125 C 53.34375 1.78125 46.289062 0.398438 39.78125 -2.359375 C 33.28125 -5.128906 27.660156 -8.90625 22.921875 -13.6875 C 18.191406 -18.46875 14.492188 -24.109375 11.828125 -30.609375 C 9.171875 -37.117188 7.84375 -44.070312 7.84375 -51.46875 L 7.84375 -51.765625 C 7.84375 -59.160156 9.171875 -66.085938 11.828125 -72.546875 C 14.492188 -79.003906 18.191406 -84.671875 22.921875 -89.546875 C 27.660156 -94.429688 33.332031 -98.28125 39.9375 -101.09375 C 46.539062 -103.90625 53.835938 -105.3125 61.828125 -105.3125 Z M 61.828125 -105.3125 "/></g></g></g><g fill="#100f0d" fill-opacity="1"><g transform="translate(602.340672, 140.837799)"><g><path d="M 16.71875 -30.03125 C 18.195312 -30.03125 19.453125 -29.804688 20.484375 -29.359375 C 21.515625 -28.910156 22.425781 -28.441406 23.21875 -27.953125 C 27.164062 -25.097656 31.304688 -22.832031 35.640625 -21.15625 C 39.984375 -19.476562 44.671875 -18.640625 49.703125 -18.640625 C 54.429688 -18.640625 58.101562 -19.5 60.71875 -21.21875 C 63.332031 -22.945312 64.640625 -25.335938 64.640625 -28.390625 L 64.640625 -28.6875 C 64.640625 -30.164062 64.367188 -31.472656 63.828125 -32.609375 C 63.285156 -33.742188 62.25 -34.828125 60.71875 -35.859375 C 59.1875 -36.898438 57.0625 -37.890625 54.34375 -38.828125 C 51.632812 -39.765625 48.113281 -40.773438 43.78125 -41.859375 C 38.550781 -43.140625 33.816406 -44.539062 29.578125 -46.0625 C 25.335938 -47.59375 21.738281 -49.539062 18.78125 -51.90625 C 15.820312 -54.28125 13.53125 -57.191406 11.90625 -60.640625 C 10.28125 -64.085938 9.46875 -68.378906 9.46875 -73.515625 L 9.46875 -73.8125 C 9.46875 -78.539062 10.351562 -82.800781 12.125 -86.59375 C 13.90625 -90.394531 16.394531 -93.675781 19.59375 -96.4375 C 22.800781 -99.195312 26.625 -101.316406 31.0625 -102.796875 C 35.5 -104.273438 40.378906 -105.015625 45.703125 -105.015625 C 58.222656 -105.015625 69.164062 -101.957031 78.53125 -95.84375 C 79.820312 -95.050781 80.984375 -93.914062 82.015625 -92.4375 C 83.046875 -90.957031 83.5625 -89.085938 83.5625 -86.828125 C 83.5625 -83.867188 82.523438 -81.375 80.453125 -79.34375 C 78.390625 -77.320312 75.878906 -76.3125 72.921875 -76.3125 C 70.847656 -76.3125 68.925781 -76.859375 67.15625 -77.953125 C 59.65625 -82.578125 52.40625 -84.890625 45.40625 -84.890625 C 40.96875 -84.890625 37.640625 -84.023438 35.421875 -82.296875 C 33.203125 -80.578125 32.09375 -78.4375 32.09375 -75.875 L 32.09375 -75.578125 C 32.09375 -73.804688 32.410156 -72.328125 33.046875 -71.140625 C 33.691406 -69.960938 34.851562 -68.90625 36.53125 -67.96875 C 38.207031 -67.03125 40.5 -66.09375 43.40625 -65.15625 C 46.320312 -64.21875 49.992188 -63.15625 54.421875 -61.96875 C 59.648438 -60.59375 64.3125 -59.039062 68.40625 -57.3125 C 72.5 -55.582031 75.945312 -53.507812 78.75 -51.09375 C 81.5625 -48.6875 83.679688 -45.851562 85.109375 -42.59375 C 86.546875 -39.34375 87.265625 -35.445312 87.265625 -30.90625 L 87.265625 -30.609375 C 87.265625 -25.484375 86.328125 -20.921875 84.453125 -16.921875 C 82.578125 -12.929688 79.960938 -9.582031 76.609375 -6.875 C 73.265625 -4.164062 69.273438 -2.09375 64.640625 -0.65625 C 60.003906 0.769531 54.875 1.484375 49.25 1.484375 C 42.445312 1.484375 35.742188 0.445312 29.140625 -1.625 C 22.535156 -3.695312 16.273438 -6.800781 10.359375 -10.9375 C 9.078125 -11.832031 8.039062 -13.039062 7.25 -14.5625 C 6.457031 -16.09375 6.0625 -17.75 6.0625 -19.53125 C 6.0625 -22.476562 7.097656 -24.960938 9.171875 -26.984375 C 11.242188 -29.015625 13.757812 -30.03125 16.71875 -30.03125 Z M 16.71875 -30.03125 "/></g></g></g><g fill="#100f0d" fill-opacity="1"><g transform="translate(689.87498, 140.837799)"><g><path d="M 12.421875 -11.390625 L 12.421875 -92.140625 C 12.421875 -95.296875 13.53125 -97.984375 15.75 -100.203125 C 17.96875 -102.421875 20.65625 -103.53125 23.8125 -103.53125 L 60.5 -103.53125 C 64.738281 -103.53125 68.898438 -103.035156 72.984375 -102.046875 C 77.078125 -101.066406 80.726562 -99.515625 83.9375 -97.390625 C 87.144531 -95.273438 89.734375 -92.515625 91.703125 -89.109375 C 93.671875 -85.710938 94.65625 -81.597656 94.65625 -76.765625 L 94.65625 -76.46875 C 94.65625 -70.644531 93.320312 -65.957031 90.65625 -62.40625 C 88 -58.863281 84.796875 -56.109375 81.046875 -54.140625 C 87.066406 -51.867188 91.800781 -48.785156 95.25 -44.890625 C 98.695312 -40.992188 100.421875 -35.59375 100.421875 -28.6875 L 100.421875 -28.390625 C 100.421875 -23.660156 99.507812 -19.519531 97.6875 -15.96875 C 95.863281 -12.425781 93.25 -9.46875 89.84375 -7.09375 C 86.445312 -4.726562 82.359375 -2.953125 77.578125 -1.765625 C 72.796875 -0.585938 67.492188 0 61.671875 0 L 23.8125 0 C 20.65625 0 17.96875 -1.109375 15.75 -3.328125 C 13.53125 -5.546875 12.421875 -8.234375 12.421875 -11.390625 Z M 34.609375 -42.75 L 34.609375 -19.96875 L 61.671875 -19.96875 C 66.703125 -19.96875 70.644531 -20.878906 73.5 -22.703125 C 76.363281 -24.523438 77.796875 -27.359375 77.796875 -31.203125 L 77.796875 -31.5 C 77.796875 -34.957031 76.460938 -37.695312 73.796875 -39.71875 C 71.140625 -41.738281 66.851562 -42.75 60.9375 -42.75 Z M 34.609375 -61.671875 L 55.609375 -61.671875 C 60.640625 -61.671875 64.632812 -62.535156 67.59375 -64.265625 C 70.550781 -65.992188 72.03125 -68.78125 72.03125 -72.625 L 72.03125 -72.921875 C 72.03125 -76.367188 70.75 -79.003906 68.1875 -80.828125 C 65.625 -82.648438 61.925781 -83.5625 57.09375 -83.5625 L 34.609375 -83.5625 Z M 34.609375 -61.671875 "/></g></g></g><g fill="#100f0d" fill-opacity="1"><g transform="translate(789.534344, 140.837799)"><g><path d="M 63.015625 -105.3125 C 70.992188 -105.3125 78.335938 -103.90625 85.046875 -101.09375 C 91.753906 -98.28125 97.546875 -94.484375 102.421875 -89.703125 C 107.304688 -84.921875 111.101562 -79.300781 113.8125 -72.84375 C 116.519531 -66.382812 117.875 -59.457031 117.875 -52.0625 L 117.875 -51.765625 C 117.875 -44.367188 116.492188 -37.441406 113.734375 -30.984375 C 110.972656 -24.523438 107.148438 -18.851562 102.265625 -13.96875 C 97.390625 -9.09375 91.570312 -5.25 84.8125 -2.4375 C 78.0625 0.371094 70.695312 1.78125 62.71875 1.78125 C 54.726562 1.78125 47.378906 0.371094 40.671875 -2.4375 C 33.960938 -5.25 28.164062 -9.046875 23.28125 -13.828125 C 18.40625 -18.609375 14.613281 -24.226562 11.90625 -30.6875 C 9.195312 -37.144531 7.84375 -44.070312 7.84375 -51.46875 L 7.84375 -51.765625 C 7.84375 -59.160156 9.222656 -66.085938 11.984375 -72.546875 C 14.742188 -79.003906 18.5625 -84.671875 23.4375 -89.546875 C 28.320312 -94.429688 34.140625 -98.28125 40.890625 -101.09375 C 47.648438 -103.90625 55.023438 -105.3125 63.015625 -105.3125 Z M 63.015625 -19.234375 C 67.640625 -19.234375 71.847656 -20.066406 75.640625 -21.734375 C 79.441406 -23.410156 82.695312 -25.726562 85.40625 -28.6875 C 88.125 -31.644531 90.242188 -35.070312 91.765625 -38.96875 C 93.296875 -42.863281 94.0625 -47.03125 94.0625 -51.46875 L 94.0625 -51.765625 C 94.0625 -56.203125 93.296875 -60.390625 91.765625 -64.328125 C 90.242188 -68.273438 88.078125 -71.726562 85.265625 -74.6875 C 82.453125 -77.644531 79.144531 -79.988281 75.34375 -81.71875 C 71.550781 -83.445312 67.34375 -84.3125 62.71875 -84.3125 C 58.175781 -84.3125 53.984375 -83.472656 50.140625 -81.796875 C 46.296875 -80.117188 43.015625 -77.800781 40.296875 -74.84375 C 37.585938 -71.882812 35.46875 -68.457031 33.9375 -64.5625 C 32.414062 -60.664062 31.65625 -56.5 31.65625 -52.0625 L 31.65625 -51.765625 C 31.65625 -47.328125 32.414062 -43.132812 33.9375 -39.1875 C 35.46875 -35.25 37.640625 -31.800781 40.453125 -28.84375 C 43.265625 -25.882812 46.59375 -23.539062 50.4375 -21.8125 C 54.28125 -20.09375 58.472656 -19.234375 63.015625 -19.234375 Z M 63.015625 -19.234375 "/></g></g></g><g fill="#100f0d" fill-opacity="1"><g transform="translate(908.120742, 140.837799)"><g><path d="M 12.421875 -93.03125 C 12.421875 -96.1875 13.53125 -98.875 15.75 -101.09375 C 17.96875 -103.3125 20.65625 -104.421875 23.8125 -104.421875 C 26.96875 -104.421875 29.65625 -103.3125 31.875 -101.09375 C 34.09375 -98.875 35.203125 -96.1875 35.203125 -93.03125 L 35.203125 -20.703125 L 77.359375 -20.703125 C 80.210938 -20.703125 82.648438 -19.691406 84.671875 -17.671875 C 86.691406 -15.648438 87.703125 -13.210938 87.703125 -10.359375 C 87.703125 -7.492188 86.691406 -5.050781 84.671875 -3.03125 C 82.648438 -1.007812 80.210938 0 77.359375 0 L 23.8125 0 C 20.65625 0 17.96875 -1.109375 15.75 -3.328125 C 13.53125 -5.546875 12.421875 -8.234375 12.421875 -11.390625 Z M 12.421875 -93.03125 "/></g></g></g><g fill="#100f0d" fill-opacity="1"><g transform="translate(992.549811, 140.837799)"><g><path d="M 4.140625 -93.03125 C 4.140625 -95.894531 5.175781 -98.359375 7.25 -100.421875 C 9.320312 -102.492188 11.785156 -103.53125 14.640625 -103.53125 L 81.203125 -103.53125 C 84.054688 -103.53125 86.519531 -102.492188 88.59375 -100.421875 C 90.664062 -98.359375 91.703125 -95.894531 91.703125 -93.03125 C 91.703125 -90.175781 90.664062 -87.710938 88.59375 -85.640625 C 86.519531 -83.566406 84.054688 -82.53125 81.203125 -82.53125 L 59.3125 -82.53125 L 59.3125 -10.5 C 59.3125 -7.34375 58.203125 -4.65625 55.984375 -2.4375 C 53.765625 -0.21875 51.078125 0.890625 47.921875 0.890625 C 44.765625 0.890625 42.078125 -0.21875 39.859375 -2.4375 C 37.640625 -4.65625 36.53125 -7.34375 36.53125 -10.5 L 36.53125 -82.53125 L 14.640625 -82.53125 C 11.785156 -82.53125 9.320312 -83.566406 7.25 -85.640625 C 5.175781 -87.710938 4.140625 -90.175781 4.140625 -93.03125 Z M 4.140625 -93.03125 "/></g></g></g></g></g><g transform="matrix(1, 0, 0, 1, 380, 1141)"><g clip-path="url(#afcb68bc6f)"><g fill="#100f0d" fill-opacity="1"><g transform="translate(2.529357, 49.00519)"><g><path d="M 14.9375 0.640625 C 12.269531 0.640625 9.972656 0.199219 8.046875 -0.671875 C 6.117188 -1.554688 4.628906 -2.8125 3.578125 -4.4375 C 2.523438 -6.0625 2 -7.96875 2 -10.15625 L 9.109375 -10.15625 C 9.109375 -8.632812 9.628906 -7.445312 10.671875 -6.59375 C 11.722656 -5.75 13.132812 -5.328125 14.90625 -5.328125 C 16.414062 -5.328125 17.609375 -5.625 18.484375 -6.21875 C 19.367188 -6.8125 19.8125 -7.640625 19.8125 -8.703125 C 19.8125 -9.828125 19.28125 -10.738281 18.21875 -11.4375 C 17.15625 -12.132812 15.503906 -12.726562 13.265625 -13.21875 C 9.523438 -14 6.757812 -15.195312 4.96875 -16.8125 C 3.175781 -18.425781 2.28125 -20.519531 2.28125 -23.09375 C 2.28125 -26.007812 3.34375 -28.3125 5.46875 -30 C 7.59375 -31.6875 10.492188 -32.53125 14.171875 -32.53125 C 16.691406 -32.53125 18.878906 -32.097656 20.734375 -31.234375 C 22.585938 -30.367188 24.019531 -29.148438 25.03125 -27.578125 C 26.050781 -26.015625 26.5625 -24.15625 26.5625 -22 L 19.59375 -22 C 19.59375 -23.425781 19.117188 -24.550781 18.171875 -25.375 C 17.234375 -26.195312 15.929688 -26.609375 14.265625 -26.609375 C 12.742188 -26.609375 11.539062 -26.3125 10.65625 -25.71875 C 9.78125 -25.125 9.34375 -24.296875 9.34375 -23.234375 C 9.34375 -22.265625 9.828125 -21.445312 10.796875 -20.78125 C 11.765625 -20.113281 13.46875 -19.488281 15.90625 -18.90625 C 19.882812 -17.96875 22.753906 -16.707031 24.515625 -15.125 C 26.273438 -13.539062 27.15625 -11.488281 27.15625 -8.96875 C 27.15625 -5.96875 26.066406 -3.613281 23.890625 -1.90625 C 21.722656 -0.207031 18.738281 0.640625 14.9375 0.640625 Z M 14.9375 0.640625 "/></g></g></g><g fill="#100f0d" fill-opacity="1"><g transform="translate(51.33964, 49.00519)"><g><path d="M 3.828125 0 L 3.828125 -31.890625 L 11.078125 -31.890625 L 11.078125 0 Z M 3.828125 0 "/></g></g></g><g fill="#100f0d" fill-opacity="1"><g transform="translate(85.843299, 49.00519)"><g><path d="M 3.828125 0 L 3.828125 -31.890625 L 9.984375 -31.890625 L 21.328125 -15.359375 L 32.625 -31.890625 L 38.734375 -31.890625 L 38.734375 0 L 31.53125 0 L 31.53125 -19.1875 L 23.78125 -7.875 L 18.765625 -7.875 L 11.03125 -19.234375 L 11.03125 0 Z M 3.828125 0 "/></g></g></g><g fill="#100f0d" fill-opacity="1"><g transform="translate(148.00339, 49.00519)"><g><path d="M 18.953125 0.640625 C 15.640625 0.640625 12.695312 -0.0625 10.125 -1.46875 C 7.5625 -2.882812 5.554688 -4.835938 4.109375 -7.328125 C 2.671875 -9.828125 1.953125 -12.703125 1.953125 -15.953125 C 1.953125 -19.203125 2.671875 -22.070312 4.109375 -24.5625 C 5.554688 -27.050781 7.5625 -29 10.125 -30.40625 C 12.695312 -31.820312 15.640625 -32.53125 18.953125 -32.53125 C 22.296875 -32.53125 25.242188 -31.820312 27.796875 -30.40625 C 30.347656 -29 32.351562 -27.050781 33.8125 -24.5625 C 35.269531 -22.070312 36 -19.203125 36 -15.953125 C 36 -12.703125 35.269531 -9.828125 33.8125 -7.328125 C 32.351562 -4.835938 30.347656 -2.882812 27.796875 -1.46875 C 25.242188 -0.0625 22.296875 0.640625 18.953125 0.640625 Z M 9.34375 -15.953125 C 9.34375 -14.035156 9.75 -12.347656 10.5625 -10.890625 C 11.382812 -9.429688 12.515625 -8.289062 13.953125 -7.46875 C 15.398438 -6.644531 17.066406 -6.234375 18.953125 -6.234375 C 20.867188 -6.234375 22.546875 -6.644531 23.984375 -7.46875 C 25.429688 -8.289062 26.554688 -9.429688 27.359375 -10.890625 C 28.160156 -12.347656 28.5625 -14.035156 28.5625 -15.953125 C 28.5625 -17.859375 28.160156 -19.539062 27.359375 -21 C 26.554688 -22.457031 25.429688 -23.597656 23.984375 -24.421875 C 22.546875 -25.242188 20.867188 -25.65625 18.953125 -25.65625 C 17.066406 -25.65625 15.398438 -25.242188 13.953125 -24.421875 C 12.515625 -23.597656 11.382812 -22.457031 10.5625 -21 C 9.75 -19.539062 9.34375 -17.859375 9.34375 -15.953125 Z M 9.34375 -15.953125 "/></g></g></g><g fill="#100f0d" fill-opacity="1"><g transform="translate(205.561673, 49.00519)"><g><path d="M 3.828125 0 L 3.828125 -31.890625 L 9.984375 -31.890625 L 24.0625 -12.484375 L 24.0625 -31.890625 L 31.25 -31.890625 L 31.25 0 L 25.109375 0 L 11.03125 -19.546875 L 11.03125 0 Z M 3.828125 0 "/></g></g></g><g fill="#100f0d" fill-opacity="1"><g transform="translate(260.24955, 49.00519)"><g/></g></g><g fill="#100f0d" fill-opacity="1"><g transform="translate(290.561467, 49.00519)"><g><path d="M 11.484375 0 L 11.484375 -25.109375 L 1.359375 -25.109375 L 1.359375 -31.890625 L 28.84375 -31.890625 L 28.84375 -25.109375 L 18.71875 -25.109375 L 18.71875 0 Z M 11.484375 0 "/></g></g></g><g fill="#100f0d" fill-opacity="1"><g transform="translate(340.374162, 49.00519)"><g><path d="M 3.828125 0 L 3.828125 -31.890625 L 17.453125 -31.890625 C 19.878906 -31.890625 21.988281 -31.445312 23.78125 -30.5625 C 25.570312 -29.6875 26.953125 -28.425781 27.921875 -26.78125 C 28.898438 -25.144531 29.390625 -23.1875 29.390625 -20.90625 C 29.390625 -18.570312 28.859375 -16.5625 27.796875 -14.875 C 26.734375 -13.1875 25.242188 -11.921875 23.328125 -11.078125 L 29.9375 0 L 21.546875 0 L 15.859375 -9.9375 L 11.078125 -9.9375 L 11.078125 0 Z M 10.984375 -16.03125 L 16.5 -16.03125 C 18.289062 -16.03125 19.660156 -16.445312 20.609375 -17.28125 C 21.566406 -18.125 22.046875 -19.320312 22.046875 -20.875 C 22.046875 -22.414062 21.566406 -23.601562 20.609375 -24.4375 C 19.660156 -25.28125 18.289062 -25.703125 16.5 -25.703125 L 10.984375 -25.703125 Z M 10.984375 -16.03125 "/></g></g></g><g fill="#100f0d" fill-opacity="1"><g transform="translate(392.054896, 49.00519)"><g><path d="M 0.40625 0 L 13.078125 -31.890625 L 20.1875 -31.890625 L 32.84375 0 L 25.109375 0 L 22.96875 -5.515625 L 10.296875 -5.515625 L 8.15625 0 Z M 12.171875 -11.203125 L 21.140625 -11.203125 L 16.625 -22.875 Z M 12.171875 -11.203125 "/></g></g></g><g fill="#100f0d" fill-opacity="1"><g transform="translate(444.92028, 49.00519)"><g><path d="M 3.828125 0 L 3.828125 -31.890625 L 16.453125 -31.890625 C 19.816406 -31.890625 22.757812 -31.222656 25.28125 -29.890625 C 27.800781 -28.554688 29.757812 -26.6875 31.15625 -24.28125 C 32.5625 -21.882812 33.265625 -19.109375 33.265625 -15.953125 C 33.265625 -12.753906 32.5625 -9.960938 31.15625 -7.578125 C 29.757812 -5.203125 27.800781 -3.34375 25.28125 -2 C 22.757812 -0.664062 19.816406 0 16.453125 0 Z M 11.078125 -6.65625 L 16.3125 -6.65625 C 18.195312 -6.65625 19.851562 -7.039062 21.28125 -7.8125 C 22.707031 -8.582031 23.820312 -9.664062 24.625 -11.0625 C 25.425781 -12.46875 25.828125 -14.097656 25.828125 -15.953125 C 25.828125 -17.828125 25.425781 -19.457031 24.625 -20.84375 C 23.820312 -22.226562 22.695312 -23.304688 21.25 -24.078125 C 19.8125 -24.847656 18.132812 -25.234375 16.21875 -25.234375 L 11.078125 -25.234375 Z M 11.078125 -6.65625 "/></g></g></g><g fill="#100f0d" fill-opacity="1"><g transform="translate(499.699252, 49.00519)"><g><path d="M 3.828125 0 L 3.828125 -31.890625 L 24.78125 -31.890625 L 24.78125 -25.78125 L 11.03125 -25.78125 L 11.03125 -19.1875 L 23.5625 -19.1875 L 23.5625 -13.125 L 11.03125 -13.125 L 11.03125 -6.15625 L 25.28125 -6.15625 L 25.28125 0 Z M 3.828125 0 "/></g></g></g><g fill="#100f0d" fill-opacity="1"><g transform="translate(546.91487, 49.00519)"><g/></g></g><g fill="#100f0d" fill-opacity="1"><g transform="translate(577.226787, 49.00519)"><g><path d="M 3.828125 0 L 3.828125 -31.890625 L 11.078125 -31.890625 L 11.078125 -19.640625 L 13.8125 -19.640625 C 15.601562 -19.640625 16.914062 -19.925781 17.75 -20.5 C 18.582031 -21.082031 19.269531 -22.113281 19.8125 -23.59375 L 22.828125 -31.890625 L 30.65625 -31.890625 L 26.25 -20.546875 C 25.851562 -19.515625 25.398438 -18.585938 24.890625 -17.765625 C 24.390625 -16.953125 23.820312 -16.238281 23.1875 -15.625 L 31.796875 0 L 23.375 0 L 16.546875 -12.9375 C 16.265625 -12.90625 15.992188 -12.890625 15.734375 -12.890625 C 15.484375 -12.890625 15.207031 -12.890625 14.90625 -12.890625 L 11.078125 -12.890625 L 11.078125 0 Z M 3.828125 0 "/></g></g></g><g fill="#100f0d" fill-opacity="1"><g transform="translate(629.955482, 49.00519)"><g><path d="M 3.828125 0 L 3.828125 -31.890625 L 23.828125 -31.890625 L 23.828125 -25.328125 L 11.078125 -25.328125 L 11.078125 -17.359375 L 22.640625 -17.359375 L 22.640625 -10.984375 L 11.078125 -10.984375 L 11.078125 0 Z M 3.828125 0 "/></g></g></g><g fill="#100f0d" fill-opacity="1"><g transform="translate(675.394153, 49.00519)"><g><path d="M 11.484375 0 L 11.484375 -25.109375 L 1.359375 -25.109375 L 1.359375 -31.890625 L 28.84375 -31.890625 L 28.84375 -25.109375 L 18.71875 -25.109375 L 18.71875 0 Z M 11.484375 0 "/></g></g></g><g fill="#100f0d" fill-opacity="1"><g transform="translate(725.206847, 49.00519)"><g><path d="M 6.109375 0.5 C 4.859375 0.5 3.835938 0.113281 3.046875 -0.65625 C 2.265625 -1.4375 1.875 -2.414062 1.875 -3.59375 C 1.875 -4.78125 2.265625 -5.769531 3.046875 -6.5625 C 3.835938 -7.351562 4.859375 -7.75 6.109375 -7.75 C 7.347656 -7.75 8.363281 -7.351562 9.15625 -6.5625 C 9.945312 -5.769531 10.34375 -4.78125 10.34375 -3.59375 C 10.34375 -2.414062 9.945312 -1.4375 9.15625 -0.65625 C 8.363281 0.113281 7.347656 0.5 6.109375 0.5 Z M 6.109375 0.5 "/></g></g></g></g></g></svg>