<svg xmlns="http://www.w3.org/2000/svg" xmlns:xlink="http://www.w3.org/1999/xlink" width="2000" zoomAndPan="magnify" viewBox="0 0 1500 1499.999933" height="2000" preserveAspectRatio="xMidYMid meet" version="1.0"><defs><clipPath id="720d3d62b1"><path d="M 268.171875 0 L 1231.921875 0 L 1231.921875 1452 L 268.171875 1452 Z M 268.171875 0 " clip-rule="nonzero"/></clipPath></defs><g clip-path="url(#720d3d62b1)"><path fill="#1901ad" d="M 642.164062 1.550781 C 544.957031 9.445312 451.4375 54.539062 382.128906 126.65625 C 323.347656 187.714844 287.378906 258.605469 271.761719 344.40625 C 266.671875 371.601562 267.023438 445.121094 272.289062 475.125 C 290.535156 579.703125 346.15625 669.363281 433.1875 734.285156 C 487.582031 774.992188 547.941406 799.90625 619.355469 811.3125 C 645.671875 815.523438 702.699219 815.699219 730.949219 811.488281 C 753.933594 808.15625 787.273438 800.257812 805.34375 793.941406 L 817.628906 789.554688 L 837.980469 830.964844 L 858.335938 872.199219 L 852.894531 879.917969 C 847.984375 886.9375 847.457031 889.042969 847.457031 900.273438 L 847.632812 912.90625 L 877.460938 974.320312 C 893.953125 1008.007812 944.839844 1111.882812 990.457031 1205.050781 C 1036.078125 1298.222656 1079.59375 1387.007812 1086.964844 1402.449219 C 1101.527344 1432.804688 1107.667969 1440.699219 1121.882812 1447.367188 C 1127.320312 1450 1133.285156 1451.226562 1140.480469 1451.226562 C 1150.128906 1451.402344 1153.816406 1450.175781 1178.730469 1438.242188 C 1212.246094 1422.453125 1219.613281 1417.363281 1226.457031 1404.90625 C 1231.195312 1396.484375 1231.722656 1393.851562 1231.722656 1380.515625 L 1231.722656 1365.601562 L 1218.738281 1338.40625 C 1211.542969 1323.492188 1186.101562 1270.851562 1161.886719 1221.722656 C 1137.847656 1172.417969 1108.898438 1113.285156 1097.492188 1090.125 C 1048.011719 988.882812 977.476562 845.878906 975.195312 842.371094 C 971.507812 836.753906 959.050781 831.316406 949.75 831.316406 L 941.855469 831.316406 L 921.328125 789.730469 C 910.097656 766.921875 901.5 747.621094 902.199219 746.917969 C 902.902344 746.214844 911.851562 739.546875 922.027344 732.003906 C 954.488281 707.613281 990.109375 669.539062 1014.496094 633.042969 C 1102.054688 501.972656 1105.210938 329.316406 1022.394531 195.4375 C 957.824219 91.035156 850.089844 20.851562 728.316406 4.007812 C 704.277344 0.671875 665.5 -0.378906 642.164062 1.550781 Z M 703.925781 66.296875 C 720.246094 68.402344 753.933594 75.246094 753.058594 76.121094 C 752.707031 76.648438 743.40625 75.417969 732.351562 73.488281 C 703.226562 68.578125 680.238281 67.523438 655.324219 69.804688 C 570.050781 77.527344 498.984375 110.511719 440.90625 169.117188 C 418.449219 191.925781 407.921875 204.738281 391.777344 229.476562 C 353.351562 288.257812 333.171875 359.847656 336.507812 426.871094 C 337.210938 442.136719 337.035156 444.417969 335.628906 438.277344 C 332.824219 424.941406 333.347656 369.496094 336.683594 349.667969 C 348.964844 276.324219 381.25 212.457031 431.257812 162.625 C 481.964844 111.742188 548.117188 77.699219 614.96875 68.226562 C 622.160156 67.171875 630.058594 65.945312 632.515625 65.59375 C 642.515625 64.191406 691.117188 64.714844 703.925781 66.296875 Z M 711.648438 107.53125 C 785.867188 117.355469 854.300781 153.5 902.375 208.421875 C 999.230469 319.136719 1003.269531 481.792969 911.675781 596.722656 C 872.722656 645.675781 816.398438 683.574219 757.96875 700.421875 C 707.964844 714.808594 651.816406 715.511719 600.578125 702.351562 C 501.441406 677.082031 417.746094 598.476562 386.863281 501.796875 C 375.460938 466.703125 373.882812 455.472656 373.882812 410.203125 C 373.882812 373.707031 374.230469 366.863281 377.742188 350.546875 C 398.09375 257.199219 456.347656 180.699219 539.519531 138.410156 C 593.738281 110.6875 654.269531 99.808594 711.648438 107.53125 Z M 338.964844 452.667969 C 338.4375 454.070312 337.910156 453.542969 337.910156 451.613281 C 337.734375 449.683594 338.261719 448.628906 338.789062 449.332031 C 339.316406 449.859375 339.488281 451.4375 338.964844 452.667969 Z M 338.964844 452.667969 " fill-opacity="1" fill-rule="nonzero"/></g><path fill="#1901ad" d="M 641.285156 141.042969 C 592.332031 149.816406 561.277344 161.746094 526.359375 185.261719 C 476.527344 218.773438 438.277344 269.65625 419.675781 326.859375 C 401.078125 383.359375 403.183594 450.558594 425.117188 505.304688 C 430.378906 518.289062 440.730469 539.167969 438.625 532.152344 C 410.726562 443.015625 423.710938 352.300781 474.949219 278.253906 C 531.269531 196.839844 618.476562 149.992188 720.246094 146.484375 L 731.652344 146.132812 L 720.246094 143.675781 C 709.191406 141.394531 650.410156 139.464844 641.285156 141.042969 Z M 641.285156 141.042969 " fill-opacity="1" fill-rule="nonzero"/></svg>