<svg xmlns="http://www.w3.org/2000/svg" xmlns:xlink="http://www.w3.org/1999/xlink" width="2000" zoomAndPan="magnify" viewBox="0 0 1500 1499.999933" height="2000" preserveAspectRatio="xMidYMid meet" version="1.0"><path fill="#1901ad" d="M 1267.183594 960.679688 C 1164.855469 970.613281 1062.527344 981.058594 960.027344 991.25 C 839.371094 1003.324219 719.058594 1015.3125 598.40625 1027.386719 C 494.277344 1037.578125 390.066406 1047.9375 293.558594 1057.441406 C 223 1058.640625 184.550781 1027.558594 177.359375 965.5625 C 168.109375 886.179688 160.230469 806.542969 153.722656 727.078125 C 149.101562 669.960938 180.355469 628.773438 238.5 621.066406 C 323.871094 609.765625 410.019531 602.570312 495.90625 594.007812 C 674.105469 576.195312 852.386719 558.554688 1030.585938 541.003906 C 1095.410156 534.492188 1160.230469 526.871094 1225.054688 522.503906 C 1296.128906 517.625 1333.207031 550.507812 1340.3125 620.894531 C 1347.761719 693.769531 1351.703125 767.410156 1363.949219 839.855469 C 1376.019531 911.183594 1323.445312 955.371094 1267.183594 960.679688 Z M 1424.832031 872.992188 C 1414.46875 771.09375 1401.027344 678.953125 1396.828125 586.386719 C 1392.890625 504.179688 1311.457031 453.742188 1242.007812 463.25 C 1137.367188 477.550781 1032.042969 484.742188 926.886719 495.191406 C 806.316406 507.179688 685.664062 520.195312 565.09375 532.011719 C 452.578125 542.886719 340.058594 553.933594 227.625 562.324219 C 145.589844 568.574219 89.160156 629.457031 96.78125 711.152344 C 105.34375 803.460938 119.472656 895.601562 123.410156 988.253906 C 126.664062 1069.515625 200.308594 1123.464844 278.316406 1115.074219 C 360.695312 1106.253906 442.898438 1098.886719 525.277344 1090.753906 C 782.941406 1065.0625 1040.777344 1039.375 1298.441406 1013.941406 C 1370.882812 1007.007812 1438.53125 945.4375 1424.832031 872.992188 " fill-opacity="1" fill-rule="nonzero"/><path fill="#1901ad" d="M 715.121094 332.660156 C 687.804688 332.40625 666.996094 311.597656 666.996094 284.539062 C 667.167969 257.390625 688.0625 236.839844 715.378906 236.839844 C 742.695312 237.011719 763.503906 257.90625 763.503906 284.964844 C 763.246094 311.851562 741.921875 333.089844 715.121094 332.660156 Z M 715.550781 196.082031 C 664.855469 195.824219 626.234375 234.015625 625.980469 284.28125 C 625.722656 334.289062 664.425781 373.164062 714.863281 373.59375 C 764.617188 374.105469 804.261719 334.972656 804.433594 285.222656 C 804.433594 234.957031 766.070312 196.335938 715.550781 196.082031 " fill-opacity="1" fill-rule="nonzero"/><path fill="#1901ad" d="M 1135.226562 432.078125 L 987.257812 445.78125 C 987.171875 445.78125 987.171875 445.78125 987.171875 445.78125 C 970.472656 440.214844 954.03125 430.367188 937.761719 423.34375 C 893.574219 403.992188 849.648438 383.867188 807.261719 364.859375 C 816.25 341.308594 824.128906 320.417969 833.378906 296.441406 C 932.964844 341.226562 1034.097656 386.609375 1135.226562 432.078125 " fill-opacity="1" fill-rule="nonzero"/><path fill="#1901ad" d="M 338.6875 509.660156 C 426.03125 447.152344 513.546875 384.726562 602.003906 321.445312 C 615.703125 342.082031 628.632812 361.433594 642.761719 382.757812 C 589.242188 420.777344 536.582031 460.679688 481.261719 496.386719 L 338.6875 509.660156 " fill-opacity="1" fill-rule="nonzero"/><path fill="#1901ad" d="M 1259.050781 856.636719 C 1218.71875 872.394531 1190.800781 863.230469 1165.625 831.035156 C 1134.199219 790.789062 1097.71875 754.566406 1057.472656 710.039062 C 1063.554688 770.40625 1068.777344 822.472656 1074.34375 877.960938 C 1056.359375 880.015625 1039.664062 881.984375 1019.195312 884.382812 C 1011.40625 805.601562 1003.867188 728.535156 996.332031 652.066406 C 1040.691406 635.453125 1057.21875 639.390625 1086.757812 672.015625 C 1121.527344 710.378906 1156.464844 748.742188 1196.367188 792.757812 C 1190.628906 734.015625 1185.664062 683.492188 1180.527344 629.972656 C 1198.507812 628.34375 1215.292969 626.890625 1235.585938 625.089844 C 1243.550781 703.871094 1251.257812 780.082031 1259.050781 856.636719 " fill-opacity="1" fill-rule="nonzero"/><path fill="#1901ad" d="M 388.011719 906.730469 C 349.5625 906.304688 319.933594 870.851562 319.503906 825.039062 C 319.25 779.914062 348.878906 748.65625 391.523438 749.085938 C 432.023438 749.34375 458.65625 782.652344 459.085938 832.917969 C 459.511719 876.933594 430.398438 906.988281 388.011719 906.730469 Z M 397.945312 704.472656 C 313.511719 704.472656 257.9375 754.222656 258.367188 829.664062 C 258.878906 902.792969 310.257812 952.375 385.011719 951.859375 C 463.964844 951.175781 521.59375 898.425781 521.082031 827.351562 C 520.652344 754.222656 470.644531 704.214844 397.945312 704.472656 " fill-opacity="1" fill-rule="nonzero"/><path fill="#1901ad" d="M 691.488281 774.601562 C 681.296875 801.917969 653.039062 796.78125 626.234375 802.605469 C 623.238281 777.085938 620.414062 753.964844 617.417969 727.847656 C 642.847656 721.085938 667.167969 714.832031 684.550781 734.269531 C 692.429688 743.089844 695.855469 763.214844 691.488281 774.601562 Z M 756.054688 742.40625 C 751 709.011719 732.675781 686.148438 699.109375 684.777344 C 652.183594 682.636719 604.65625 687.089844 554.648438 688.886719 C 563.039062 771.347656 570.660156 847.730469 578.539062 926.683594 C 598.664062 925.742188 616.472656 924.800781 636.167969 923.859375 C 634.113281 895.429688 631.972656 869.226562 630.175781 844.90625 C 660.660156 836.34375 689.859375 831.292969 716.234375 819.730469 C 747.488281 806.03125 761.191406 774.773438 756.054688 742.40625 " fill-opacity="1" fill-rule="nonzero"/><path fill="#1901ad" d="M 791.074219 668.507812 C 842.882812 663.28125 891.777344 658.316406 943.328125 653.09375 C 945.125 668.078125 946.582031 680.238281 948.292969 694.625 C 916.097656 698.050781 886.46875 701.304688 854.441406 704.730469 C 856.414062 723.652344 858.125 739.664062 860.09375 758.246094 C 888.609375 755.765625 915.582031 753.367188 946.410156 750.710938 C 948.125 763.472656 949.921875 776.402344 951.890625 791.472656 C 922.519531 794.726562 895.460938 797.722656 864.460938 801.148438 C 866.261719 818.875 867.886719 835.574219 870.027344 856.550781 C 902.652344 853.726562 934.078125 851.070312 968.332031 848.160156 C 970.558594 860.832031 972.613281 872.90625 975.355469 888.492188 C 921.492188 893.972656 869.941406 899.28125 814.796875 904.847656 C 806.832031 825.46875 799.125 748.484375 791.074219 668.507812 " fill-opacity="1" fill-rule="nonzero"/></svg>